# Blender v2.66 (sub 1) OBJ File: 'casa.blend'
# www.blender.org
o Cube.008_Cube.006
v 2.343944 0.702825 3.905220
v 2.264421 0.702825 4.070744
v 1.735195 0.702825 4.070744
v 1.655673 0.702825 3.905220
v 2.343944 0.830549 3.905220
v 2.264421 0.747189 4.070744
v 1.735195 0.747189 4.070744
v 1.655673 0.830549 3.905220
v 2.237468 -0.019656 4.259117
v 1.790139 -0.019656 4.259117
v 2.237468 0.030461 4.259117
v 1.790139 0.030461 4.259117
v 2.237468 0.125064 4.077681
v 2.237468 0.030461 4.168399
v 2.237468 -0.019656 4.168399
v 2.237468 -0.019656 4.077681
v 1.790139 0.030461 4.168398
v 1.790139 0.125064 4.077681
v 1.790139 -0.019656 4.077681
v 1.790139 -0.019656 4.168398
v 2.237468 0.066953 4.077681
v 1.790139 0.066953 4.077681
v 2.237468 0.125064 3.987648
v 2.237468 -0.019656 3.986963
v 1.790139 0.125064 3.987648
v 1.790139 -0.019656 3.986963
v 1.790139 0.066953 4.169746
v 2.237468 0.066953 4.169746
v 2.194448 0.123897 3.905553
v 2.194448 0.123897 3.966825
v 1.819846 0.123897 3.966825
v 1.819846 0.123897 3.905553
v 2.194448 0.708299 3.905553
v 2.194448 0.708299 3.966825
v 1.819846 0.708299 3.966825
v 1.819846 0.708299 3.905553
v 2.165205 0.153141 3.966825
v 1.849089 0.153141 3.966825
v 2.165205 0.679056 3.966825
v 1.849089 0.679056 3.966825
v 2.165206 0.153141 3.944227
v 1.849089 0.153141 3.944227
v 2.165206 0.679056 3.944227
v 1.849089 0.679056 3.944227
v 3.999618 0.170902 0.000000
v 3.999617 0.170902 3.999618
v -0.000001 0.170902 3.999618
v 0.000000 0.170902 -0.000000
v 3.999618 -0.000000 0.000000
v 3.999617 -0.000000 3.999618
v -0.000001 -0.000000 3.999618
v 0.000000 -0.000000 -0.000000
v 3.915114 0.170902 0.084504
v 3.915113 0.170902 3.915114
v 0.084503 0.170902 3.915114
v 0.084504 0.170902 0.084504
v 3.915114 1.163565 0.084504
v 0.084504 1.163565 0.084504
v 3.915113 1.163565 3.915114
v 0.084503 1.163565 3.915114
v 3.997582 1.188896 0.000790
v 3.997581 1.188896 3.990439
v 0.007932 1.188896 3.990439
v 0.007933 1.188896 0.000790
v 3.997582 1.277352 0.000790
v 3.997581 1.277352 3.990439
v 0.007932 1.277352 3.990439
v 0.007933 1.277352 0.000790
v 2.064250 1.854600 0.237429
v 2.064250 1.854600 3.753800
v 1.941264 1.854600 3.753800
v 1.941265 1.854600 0.237429
v 1.209771 0.263289 3.909815
v 1.209771 0.263289 3.957852
v 0.783586 0.263289 3.957852
v 0.783586 0.390415 3.909815
v 1.209771 1.037402 3.909815
v 1.209771 1.037402 3.957852
v 0.783586 1.037402 3.957852
v 0.783586 1.037402 3.909815
v 3.274873 0.263289 3.909815
v 3.274873 0.263289 3.957853
v 2.848688 0.263289 3.957852
v 2.848689 0.390415 3.909815
v 3.274873 1.037402 3.909815
v 3.274873 1.037402 3.957853
v 2.848688 1.037402 3.957852
v 2.848689 1.037402 3.909815
v 2.837496 0.263290 0.095537
v 2.837496 0.263290 0.047500
v 3.263681 0.263290 0.047500
v 3.263681 0.390415 0.095537
v 2.837496 1.037402 0.095537
v 2.837496 1.037402 0.047500
v 3.263681 1.037402 0.047500
v 3.263681 1.037402 0.095537
v 1.821735 0.263290 0.095537
v 1.821735 0.263290 0.047499
v 2.247920 0.263290 0.047500
v 2.247920 0.390415 0.095537
v 1.821735 1.037402 0.095537
v 1.821735 1.037402 0.047499
v 2.247920 1.037402 0.047500
v 2.247920 1.037402 0.095537
v 0.772394 0.263290 0.095536
v 0.772394 0.263290 0.047499
v 1.198579 0.263290 0.047499
v 1.198579 0.390415 0.095536
v 0.772394 1.037402 0.095536
v 0.772394 1.037402 0.047499
v 1.198579 1.037402 0.047499
v 1.198579 1.037402 0.095536
v 3.950593 0.679056 2.189406
v 3.916180 0.263290 2.828724
v 3.964217 0.263290 2.828724
v 3.964217 0.263290 3.254909
v 3.916180 0.390415 3.254909
v 3.916180 1.037402 2.828724
v 3.964217 1.037402 2.828724
v 3.964217 1.037402 3.254909
v 3.916180 1.037402 3.254909
v 3.916180 0.263290 1.812962
v 3.964217 0.263290 1.812962
v 3.964217 0.263290 2.239147
v 3.916180 0.390415 2.239147
v 3.916180 1.037402 1.812962
v 3.964217 1.037402 1.812962
v 3.964217 1.037402 2.239147
v 3.916180 1.037402 2.239147
v 3.916180 0.263290 0.763622
v 3.964218 0.263290 0.763622
v 3.964217 0.263290 1.189806
v 3.916180 0.390415 1.189806
v 3.916180 1.037402 0.763622
v 3.964218 1.037402 0.763622
v 3.964217 1.037402 1.189806
v 3.916180 1.037402 1.189806
v 0.101902 0.263290 1.200998
v 0.053865 0.263290 1.200998
v 0.053865 0.263290 0.774814
v 0.101902 0.390415 0.774814
v 0.101902 1.037402 1.200998
v 0.053865 1.037402 1.200998
v 0.053865 1.037402 0.774814
v 0.101902 1.037402 0.774814
v 0.101902 0.263290 2.216760
v 0.053864 0.263290 2.216760
v 0.053865 0.263290 1.790575
v 0.101902 0.390415 1.790575
v 0.101902 1.037402 2.216760
v 0.053864 1.037402 2.216760
v 0.053865 1.037402 1.790575
v 0.101902 1.037402 1.790575
v 0.101901 0.263290 3.266101
v 0.053864 0.263290 3.266101
v 0.053864 0.263290 2.839916
v 0.101901 0.390415 2.839916
v 0.101901 1.037402 3.266101
v 0.053864 1.037402 3.266101
v 0.053864 1.037402 2.839916
v 0.101901 1.037402 2.839916
vt 0.064375 0.613088
vt 0.063386 0.595457
vt 0.081671 0.545166
vt 0.055501 0.600356
vt 0.052076 0.591700
vt 0.040731 0.611241
vt 0.038010 0.545166
vt 0.056940 0.588858
vt 0.789611 0.611828
vt 0.755825 0.611676
vt 0.755664 0.647474
vt 0.883025 0.623009
vt 0.983051 0.623009
vt 0.983051 0.644205
vt 0.983051 0.603004
vt 0.857234 0.544557
vt 0.823703 0.544406
vt 0.823237 0.647778
vt 0.789612 0.611828
vt 0.789451 0.647626
vt 0.789227 0.585760
vt 0.823516 0.585914
vt 0.983051 0.522834
vt 0.983051 0.542688
vt 0.883025 0.542688
vt 0.883025 0.567265
vt 0.983051 0.567265
vt 0.983051 0.587567
vt 0.823515 0.585914
vt 0.883025 0.587567
vt 0.883025 0.603004
vt 0.789450 0.647626
vt 0.883025 0.644205
vt 0.857024 0.647930
vt 0.883025 0.522834
vt 0.823238 0.647778
vt 0.857025 0.647930
vt 0.584592 0.977511
vt 0.580564 0.971226
vt 0.580564 0.681769
vt 0.395021 0.681769
vt 0.409506 0.696254
vt 0.395021 0.971226
vt 0.390993 0.977511
vt 0.390993 0.675485
vt 0.584592 0.675485
vt 0.566080 0.696254
vt 0.566080 0.956742
vt 0.409506 0.956742
vt 0.948797 0.778716
vt 0.715030 0.842973
vt 0.642697 0.776262
vt 0.882103 0.850590
vt 0.719252 0.846857
vt 0.878062 0.854988
vt 0.719657 0.847853
vt 0.980346 0.352777
vt 0.020200 0.014537
vt 0.020196 0.352779
vt 0.020200 0.352790
vt 0.978421 0.014532
vt 0.020197 0.014534
vt 0.978424 0.014537
vt 0.878570 0.853943
vt 0.863494 0.401210
vt 0.125110 0.383032
vt 0.140126 0.401210
vt 0.878510 0.383032
vt 0.112693 0.368001
vt 0.890926 0.368001
vt 0.163221 0.648606
vt 0.028129 0.463554
vt 0.086572 0.521996
vt 0.028129 0.521996
vt 0.840399 0.648606
vt 0.086572 0.463554
vt 0.272526 0.978845
vt 0.272526 0.678232
vt 0.097977 0.978845
vt 0.097977 0.678232
vt 0.097977 0.678233
vt 0.272526 0.678233
vn 0.901373 0.000000 0.433044
vn 0.000000 0.000000 1.000000
vn -0.901373 0.000000 0.433044
vn 0.000000 -1.000000 0.000000
vn 0.000000 0.893132 0.449794
vn 0.000000 0.893133 0.449793
vn 1.000000 -0.000000 0.000000
vn 0.000000 1.000000 0.000000
vn 1.000000 -0.000000 0.000003
vn -1.000000 0.000000 0.000000
vn 1.000000 0.000000 -0.000003
vn -0.000001 -0.036889 0.999319
vn 0.000000 -0.036902 0.999319
vn 1.000000 -0.000000 0.000004
vn -0.000001 0.000001 1.000000
vn -1.000000 0.000000 -0.000002
vn 0.000000 0.000000 -1.000000
vn -0.000001 -0.000001 1.000000
vn -1.000000 -0.000000 -0.000011
vn 0.000000 -0.957141 -0.289621
vn -0.000000 -0.947839 0.318748
vn -0.000000 -0.947840 0.318748
vn 0.000000 0.379309 -0.925270
vn 0.286097 0.958201 0.000000
vn -0.000000 0.379309 0.925270
vn -0.286096 0.958201 -0.000000
vn -0.314076 -0.949398 -0.000000
vn -0.286097 0.958201 -0.000000
vn -0.000001 0.000000 1.000000
vn -0.104856 -0.351529 -0.930286
vn 1.000000 -0.000000 0.000005
vn -1.000000 0.000000 -0.000005
vn -0.104856 -0.351528 -0.930286
vn 0.000001 0.000000 -1.000000
vn 0.104856 -0.351529 0.930286
vn 0.104857 -0.351530 0.930286
vn 0.000005 0.000000 -1.000000
vn 1.000000 -0.000000 0.000001
vn -0.000005 0.000000 1.000000
vn -0.930287 -0.351526 0.104856
vn 0.000002 0.000000 -1.000000
vn -0.930287 -0.351527 0.104856
vn -0.930287 -0.351528 0.104856
vn -1.000000 0.000000 -0.000001
vn 0.930286 -0.351530 -0.104856
vn 0.930287 -0.351528 -0.104856
vn 0.293623 -0.955921 0.000000
vn 0.293624 -0.955921 0.000000
vn 0.000000 0.000000 0.000000
s off
f 5/1/1 6/2/1 1/3/1
f 6/2/2 7/4/2 3/5/2
f 7/4/3 8/6/3 4/7/3
f 1/3/4 2/8/4 3/5/4
f 8/6/5 7/4/5 6/2/5
f 6/2/1 2/8/1 1/3/1
f 2/8/2 6/2/2 3/5/2
f 3/5/3 7/4/3 4/7/3
f 4/7/4 1/3/4 3/5/4
f 5/1/6 8/6/6 6/2/6
f 14/9/7 11/10/7 9/11/7
f 11/12/2 12/13/2 10/14/2
f 17/15/8 12/13/8 11/12/8
f 23/16/9 13/17/9 16/18/9
f 12/10/10 17/19/10 20/20/10
f 17/19/10 27/21/10 22/22/10
f 25/23/8 18/24/8 13/25/8
f 21/26/8 22/27/8 27/28/8
f 21/29/11 14/9/11 16/18/11
f 14/9/11 21/29/11 28/21/11
f 18/17/10 25/16/10 22/22/10
f 28/30/12 17/15/12 14/31/12
f 18/24/2 21/26/2 13/25/2
f 15/32/7 14/9/7 9/11/7
f 9/33/2 11/12/2 10/14/2
f 14/31/8 17/15/8 11/12/8
f 24/34/9 23/16/9 16/18/9
f 10/11/10 12/10/10 20/20/10
f 28/30/13 27/28/13 17/15/13
f 23/35/8 25/23/8 13/25/8
f 17/19/10 19/36/10 20/20/10
f 19/36/10 17/19/10 22/22/10
f 25/16/10 26/37/10 19/36/10
f 28/30/8 21/26/8 27/28/8
f 16/18/11 14/9/11 15/32/11
f 21/26/2 18/24/2 22/27/2
f 33/38/14 34/39/14 30/40/14
f 31/41/15 30/40/15 38/42/15
f 35/43/16 36/44/16 32/45/16
f 36/44/17 33/38/17 29/46/17
f 29/46/4 30/40/4 31/41/4
f 36/44/8 35/43/8 34/39/8
f 38/42/8 37/47/8 41/47/8
f 35/43/2 31/41/2 38/42/2
f 30/40/2 34/39/2 39/48/2
f 34/39/18 35/43/18 40/49/18
f 43/48/2 44/49/2 42/42/2
f 37/47/19 39/48/19 43/48/19
f 39/48/4 40/49/4 44/49/4
f 40/49/7 38/42/7 42/42/7
f 29/46/14 33/38/14 30/40/14
f 30/40/18 37/47/18 38/42/18
f 31/41/16 35/43/16 32/45/16
f 32/45/17 36/44/17 29/46/17
f 32/45/4 29/46/4 31/41/4
f 33/38/8 36/44/8 34/39/8
f 42/42/8 38/42/8 41/47/8
f 40/49/2 35/43/2 38/42/2
f 37/47/2 30/40/2 39/48/2
f 39/48/15 34/39/15 40/49/15
f 41/47/2 43/48/2 42/42/2
f 41/47/19 37/47/19 43/48/19
f 43/48/4 39/48/4 44/49/4
f 44/49/7 40/49/7 42/42/7
f 49/50/7 46/51/7 50/52/7
f 50/52/2 47/53/2 51/50/2
f 51/50/10 48/54/10 52/52/10
f 52/52/17 45/55/17 49/50/17
f 48/54/8 53/53/8 45/55/8
f 46/51/8 54/56/8 47/53/8
f 45/55/8 54/56/8 46/51/8
f 47/53/8 56/51/8 48/54/8
f 56/57/17 57/58/17 53/59/17
f 53/60/7 59/61/7 54/57/7
f 54/57/2 60/62/2 55/59/2
f 55/59/10 58/63/10 56/57/10
f 45/55/7 46/51/7 49/50/7
f 46/51/2 47/53/2 50/52/2
f 47/53/10 48/54/10 51/50/10
f 48/54/17 45/55/17 52/52/17
f 56/51/8 53/53/8 48/54/8
f 53/53/8 54/56/8 45/55/8
f 55/64/8 56/51/8 47/53/8
f 58/63/17 57/58/17 56/57/17
f 57/58/7 59/61/7 53/60/7
f 59/61/2 60/62/2 54/57/2
f 60/62/10 58/63/10 55/59/10
f 47/53/8 54/56/8 55/64/8
f 58/65/20 61/66/20 57/67/20
f 64/68/17 65/69/17 61/66/17
f 59/65/21 63/66/21 60/67/21
f 62/68/22 63/66/22 59/65/22
f 68/70/23 69/71/23 65/69/23
f 63/66/10 68/70/10 64/68/10
f 61/66/7 66/70/7 62/68/7
f 62/68/2 67/69/2 63/66/2
f 69/72/8 71/73/8 70/74/8
f 65/69/24 70/75/24 66/70/24
f 66/70/25 71/71/25 67/69/25
f 67/69/26 72/75/26 68/70/26
f 68/70/17 65/69/17 64/68/17
f 60/67/27 64/68/27 58/65/27
f 64/68/20 61/66/20 58/65/20
f 72/75/23 69/71/23 68/70/23
f 67/69/10 68/70/10 63/66/10
f 65/69/7 66/70/7 61/66/7
f 66/70/2 67/69/2 62/68/2
f 72/76/8 71/73/8 69/72/8
f 69/71/24 70/75/24 65/69/24
f 70/75/25 71/71/25 66/70/25
f 71/71/28 72/75/28 67/69/28
f 77/77/7 78/77/7 74/78/7
f 78/77/29 79/79/29 75/80/29
f 79/79/10 80/79/10 76/81/10
f 73/82/4 74/78/4 75/80/4
f 80/79/8 79/79/8 78/77/8
f 73/82/7 77/77/7 74/78/7
f 74/78/29 78/77/29 75/80/29
f 75/80/10 79/79/10 76/81/10
f 76/81/30 73/82/30 75/80/30
f 77/77/8 80/79/8 78/77/8
f 85/77/31 86/77/31 82/78/31
f 86/77/29 87/79/29 83/80/29
f 87/79/32 88/79/32 84/81/32
f 81/82/4 82/78/4 83/80/4
f 88/79/8 87/79/8 86/77/8
f 81/82/31 85/77/31 82/78/31
f 82/78/29 86/77/29 83/80/29
f 83/80/32 87/79/32 84/81/32
f 84/81/33 81/82/33 83/80/33
f 85/77/8 88/79/8 86/77/8
f 93/77/10 94/77/10 90/78/10
f 94/77/34 95/79/34 91/80/34
f 95/79/7 96/79/7 92/81/7
f 89/82/4 90/78/4 91/80/4
f 96/79/8 95/79/8 94/77/8
f 89/82/10 93/77/10 90/78/10
f 90/78/34 94/77/34 91/80/34
f 91/80/7 95/79/7 92/81/7
f 92/81/35 89/82/35 91/80/35
f 93/77/8 96/79/8 94/77/8
f 101/77/10 102/77/10 98/78/10
f 102/77/17 103/79/17 99/80/17
f 103/79/7 104/79/7 100/81/7
f 97/82/4 98/78/4 99/80/4
f 104/79/8 103/79/8 102/77/8
f 97/82/10 101/77/10 98/78/10
f 98/78/17 102/77/17 99/80/17
f 99/80/7 103/79/7 100/81/7
f 100/81/36 97/82/36 99/80/36
f 101/77/8 104/79/8 102/77/8
f 109/77/10 110/77/10 106/78/10
f 110/77/17 111/79/17 107/80/17
f 111/79/7 112/79/7 108/81/7
f 105/82/4 106/78/4 107/80/4
f 112/79/8 111/79/8 110/77/8
f 105/82/10 109/77/10 106/78/10
f 106/78/17 110/77/17 107/80/17
f 107/80/7 111/79/7 108/81/7
f 108/81/35 105/82/35 107/80/35
f 109/77/8 112/79/8 110/77/8
f 118/77/37 119/77/37 115/78/37
f 119/77/38 120/79/38 116/80/38
f 120/79/39 121/79/39 117/81/39
f 114/82/4 115/78/4 116/80/4
f 121/79/8 120/79/8 119/77/8
f 114/82/37 118/77/37 115/78/37
f 115/78/38 119/77/38 116/80/38
f 116/80/39 120/79/39 117/81/39
f 117/81/40 114/82/40 116/80/40
f 118/77/8 121/79/8 119/77/8
f 126/77/41 127/77/41 123/78/41
f 127/77/38 128/79/38 124/80/38
f 128/79/39 129/79/39 125/81/39
f 122/82/4 123/78/4 124/80/4
f 129/79/8 128/79/8 127/77/8
f 122/82/41 126/77/41 123/78/41
f 123/78/38 127/77/38 124/80/38
f 124/80/39 128/79/39 125/81/39
f 125/81/42 122/82/42 124/80/42
f 126/77/8 129/79/8 127/77/8
f 134/77/41 135/77/41 131/78/41
f 135/77/38 136/79/38 132/80/38
f 136/79/2 137/79/2 133/81/2
f 130/82/4 131/78/4 132/80/4
f 137/79/8 136/79/8 135/77/8
f 130/82/41 134/77/41 131/78/41
f 131/78/38 135/77/38 132/80/38
f 132/80/2 136/79/2 133/81/2
f 133/81/43 130/82/43 132/80/43
f 134/77/8 137/79/8 135/77/8
f 142/77/2 143/77/2 139/78/2
f 143/77/44 144/79/44 140/80/44
f 144/79/17 145/79/17 141/81/17
f 138/82/4 139/78/4 140/80/4
f 145/79/8 144/79/8 143/77/8
f 138/82/2 142/77/2 139/78/2
f 139/78/44 143/77/44 140/80/44
f 140/80/17 144/79/17 141/81/17
f 141/81/45 138/82/45 140/80/45
f 142/77/8 145/79/8 143/77/8
f 150/77/2 151/77/2 147/78/2
f 151/77/10 152/79/10 148/80/10
f 152/79/17 153/79/17 149/81/17
f 146/82/4 147/78/4 148/80/4
f 153/79/8 152/79/8 151/77/8
f 146/82/2 150/77/2 147/78/2
f 147/78/10 151/77/10 148/80/10
f 148/80/17 152/79/17 149/81/17
f 149/81/45 146/82/45 148/80/45
f 150/77/8 153/79/8 151/77/8
f 158/77/39 159/77/39 155/78/39
f 159/77/10 160/79/10 156/80/10
f 160/79/37 161/79/37 157/81/37
f 154/82/4 155/78/4 156/80/4
f 161/79/8 160/79/8 159/77/8
f 154/82/39 158/77/39 155/78/39
f 155/78/10 159/77/10 156/80/10
f 156/80/37 160/79/37 157/81/37
f 157/81/46 154/82/46 156/80/46
f 158/77/8 161/79/8 159/77/8
f 63/66/27 64/68/27 60/67/27
f 61/66/47 62/68/47 57/67/47
f 57/67/48 62/68/48 59/65/48
f 13/17/49 21/29/49 16/18/49
f 25/16/10 19/36/10 22/22/10
