# Blender v2.66 (sub 1) OBJ File: 'casa.blend'
# www.blender.org
o Cube.010_Cube.009
v 2.343944 0.702825 3.905220
v 2.264421 0.702825 4.070745
v 1.735196 0.702825 4.070745
v 1.655674 0.702825 3.905220
v 2.343944 0.830549 3.905220
v 2.264421 0.747189 4.070745
v 1.735196 0.747189 4.070745
v 1.655674 0.830549 3.905220
v 2.237468 -0.019656 4.259117
v 1.790139 -0.019656 4.259117
v 2.237468 0.030461 4.259117
v 1.790139 0.030461 4.259117
v 2.237468 0.125064 4.077681
v 2.237468 0.030461 4.168399
v 2.237468 -0.019656 4.168399
v 2.237468 -0.019656 4.077681
v 1.790139 0.030461 4.168399
v 1.790139 0.125064 4.077681
v 1.790139 -0.019656 4.077681
v 1.790139 -0.019656 4.168399
v 2.237468 0.066953 4.077681
v 1.790139 0.066953 4.077681
v 2.237468 0.125064 3.987648
v 2.237468 -0.019656 3.986963
v 1.790139 0.125064 3.987649
v 1.790139 -0.019656 3.986963
v 1.790139 0.066953 4.169746
v 2.237468 0.066953 4.169746
v 2.194449 0.123897 3.905553
v 2.194448 0.123897 3.966825
v 1.819846 0.123897 3.966825
v 1.819846 0.123897 3.905553
v 2.194449 0.708299 3.905553
v 2.194448 0.708299 3.966825
v 1.819846 0.708299 3.966825
v 1.819846 0.708299 3.905553
v 2.165206 0.153141 3.966825
v 1.849089 0.153141 3.966825
v 2.165206 0.679056 3.966825
v 1.849089 0.679056 3.966825
v 2.165206 0.153141 3.944228
v 1.849089 0.153141 3.944228
v 2.165206 0.679056 3.944228
v 1.849089 0.679056 3.944228
v 3.999618 0.170902 0.000000
v 3.999617 0.170902 3.999619
v -0.000000 0.170902 3.999618
v 0.000000 0.170902 -0.000000
v 3.999618 0.000000 0.000000
v 3.999617 0.000000 3.999619
v -0.000000 0.000000 3.999618
v 0.000000 0.000000 -0.000000
v 3.915114 0.170902 0.084504
v 3.915114 0.170902 3.915114
v 0.084504 0.170902 3.915114
v 0.084504 0.170902 0.084504
v 3.915114 1.888066 0.084504
v 3.915114 1.888066 3.915114
v 0.084504 1.888066 3.915114
v 0.084504 1.888066 0.084504
v 0.060349 1.955364 3.939269
v 0.070956 1.922226 3.928662
v 0.060349 1.955364 0.060349
v 0.070956 1.922226 0.070956
v 0.087453 1.986847 0.080309
v 0.087452 1.986847 3.910919
v 3.918062 1.986847 3.910920
v 3.918062 1.986847 0.080310
v 3.915114 1.762552 0.084504
v 0.084504 1.762552 0.084504
v 3.915114 1.762552 3.915114
v 0.084504 1.762552 3.915114
v 3.915114 1.820779 0.084504
v 3.915114 1.820779 3.915114
v 0.084504 1.820779 3.915114
v 0.084504 1.820779 0.084504
v 0.070956 1.781961 0.070956
v 0.060349 1.815099 0.060349
v 0.070956 1.781961 3.928662
v 0.060349 1.815099 3.939269
v 3.928662 1.781961 3.928662
v 3.939269 1.815099 3.939269
v 3.928662 1.781961 0.070956
v 3.939269 1.815099 0.060350
v 3.918062 3.453521 0.080310
v 3.918062 3.453521 3.910920
v 0.087452 3.453521 3.910919
v 0.087453 3.453521 0.080309
v 3.997582 3.453521 0.000790
v 3.997581 3.453521 3.990440
v 0.007932 3.453521 3.990439
v 0.007933 3.453521 0.000790
v 3.997582 3.541977 0.000790
v 3.997581 3.541977 3.990440
v 0.007932 3.541977 3.990439
v 0.007933 3.541977 0.000790
v 3.976055 5.566289 0.928492
v 3.976055 5.566289 3.062738
v 0.029459 5.566289 3.062737
v 0.029459 5.566289 0.928491
v 3.928662 1.922226 3.928662
v 3.939269 1.955364 3.939269
v 3.928662 1.922226 0.070956
v 3.939269 1.955364 0.060350
v 1.500473 3.685670 3.451349
v 1.500472 3.685670 3.961238
v 0.876470 3.685670 3.961238
v 0.876470 3.685670 3.451349
v 1.500473 4.602699 3.451349
v 1.500472 4.602699 3.961238
v 0.876470 4.602699 3.961238
v 0.876470 4.602699 3.451349
v 3.859275 0.486862 1.694423
v 3.984128 0.486862 1.694423
v 3.984128 0.486862 2.318426
v 3.859275 0.486862 2.318426
v 3.859275 1.403891 1.694423
v 3.984128 1.403891 1.694423
v 3.984128 1.403891 2.318426
v 3.859275 1.403891 2.318426
v 0.159074 0.486862 2.417681
v 0.034221 0.486862 2.417681
v 0.034221 0.486862 1.793678
v 0.159074 0.486862 1.793678
v 0.159074 1.403891 2.417681
v 0.034221 1.403891 2.417681
v 0.034221 1.403891 1.793678
v 0.159074 1.403891 1.793678
v 2.354868 2.212268 3.840784
v 2.354867 2.212268 3.965637
v 1.730865 2.212268 3.965637
v 1.730865 2.212268 3.840784
v 2.354868 3.129297 3.840784
v 2.354867 3.129297 3.965637
v 1.730865 3.129297 3.965637
v 1.730865 3.129297 3.840784
v 1.615210 2.212268 0.140583
v 1.615210 2.212268 0.015730
v 2.239213 2.212268 0.015730
v 2.239213 2.212268 0.140583
v 1.615210 3.129297 0.140583
v 1.615210 3.129297 0.015730
v 2.239213 3.129297 0.015730
v 2.239213 3.129297 0.140583
v 3.859275 2.212268 1.694423
v 3.984128 2.212268 1.694423
v 3.984128 2.212268 2.318426
v 3.859275 2.212268 2.318426
v 3.859275 3.129297 1.694423
v 3.984128 3.129297 1.694423
v 3.984128 3.129297 2.318426
v 3.859275 3.129297 2.318426
v 0.159073 2.212268 2.455890
v 0.034221 2.212268 2.455890
v 0.034221 2.212268 1.831888
v 0.159074 2.212268 1.831888
v 0.159073 3.129297 2.455890
v 0.034221 3.129297 2.455890
v 0.034221 3.129297 1.831888
v 0.159074 3.129297 1.831888
v 3.105183 3.685670 3.451349
v 3.105183 3.685670 3.961238
v 2.481180 3.685670 3.961238
v 2.481180 3.685670 3.451349
v 3.105183 4.602699 3.451349
v 3.105183 4.602699 3.961238
v 2.481180 4.602699 3.961238
v 2.481180 4.602699 3.451349
v 2.481181 3.685670 0.562610
v 2.481181 3.685670 0.052721
v 3.105184 3.685670 0.052721
v 3.105184 3.685670 0.562610
v 2.481181 4.602699 0.562610
v 2.481181 4.602699 0.052721
v 3.105184 4.602699 0.052721
v 3.105184 4.602699 0.562610
v 0.876470 3.685670 0.562610
v 0.876470 3.685670 0.052721
v 1.500473 3.685670 0.052721
v 1.500473 3.685670 0.562610
v 0.876470 4.602699 0.562610
v 0.876470 4.602699 0.052721
v 1.500473 4.602699 0.052721
v 1.500473 4.602699 0.562610
vt 0.064375 0.613088
vt 0.063386 0.595457
vt 0.081671 0.545166
vt 0.055501 0.600356
vt 0.052076 0.591700
vt 0.040731 0.611241
vt 0.038010 0.545166
vt 0.056940 0.588858
vt 0.789611 0.611828
vt 0.755825 0.611676
vt 0.755664 0.647474
vt 0.883025 0.623009
vt 0.983051 0.623009
vt 0.983051 0.644205
vt 0.983051 0.603004
vt 0.857234 0.544557
vt 0.823703 0.544406
vt 0.823237 0.647778
vt 0.789612 0.611828
vt 0.789451 0.647626
vt 0.789227 0.585760
vt 0.823516 0.585914
vt 0.983051 0.522834
vt 0.983051 0.542688
vt 0.883025 0.542688
vt 0.883025 0.567265
vt 0.983051 0.567265
vt 0.983051 0.587567
vt 0.823515 0.585914
vt 0.883025 0.587567
vt 0.883025 0.603004
vt 0.789450 0.647626
vt 0.883025 0.644205
vt 0.857024 0.647930
vt 0.883025 0.522834
vt 0.823238 0.647778
vt 0.857025 0.647930
vt 0.584592 0.977511
vt 0.580564 0.971226
vt 0.580564 0.681769
vt 0.395021 0.681769
vt 0.409506 0.696254
vt 0.395021 0.971226
vt 0.390993 0.977511
vt 0.390993 0.675485
vt 0.584592 0.675485
vt 0.566080 0.696254
vt 0.566080 0.956742
vt 0.409506 0.956742
vt 0.939261 0.850242
vt 0.705493 0.914499
vt 0.633160 0.847788
vt 0.872566 0.922115
vt 0.709715 0.918382
vt 0.868525 0.926513
vt 0.980345 0.352777
vt 0.020198 0.014527
vt 0.020205 0.352798
vt 0.710120 0.919378
vt 0.947563 0.724803
vt 0.693894 0.775808
vt 0.643462 0.721861
vt 0.020209 0.352807
vt 0.978423 0.014528
vt 0.980346 0.352777
vt 0.020198 0.014526
vt 0.020196 0.352779
vt 0.978423 0.014527
vt 0.895059 0.774555
vt 0.988352 0.685120
vt 0.602641 0.679687
vt 0.020200 0.014537
vt 0.020200 0.352790
vt 0.978421 0.014532
vt 0.020197 0.014534
vt 0.978424 0.014537
vt 0.887252 0.781997
vt 0.701606 0.783922
vt 0.869033 0.925468
vt 0.742094 0.401210
vt 0.251550 0.383032
vt 0.261526 0.401210
vt 0.752070 0.383032
vt 0.243301 0.368001
vt 0.760318 0.368001
vt 0.258611 0.648606
vt 0.028129 0.463554
vt 0.086572 0.521996
vt 0.028129 0.521996
vt 0.745009 0.648606
vt 0.086572 0.463554
vt 0.173313 0.959402
vt 0.213604 0.947713
vt 0.213604 0.776673
vt 0.329990 0.947713
vt 0.329990 0.776673
vt 0.370281 0.959402
vt 0.370281 0.764984
vt 0.173313 0.764984
vt 0.015397 0.956533
vt 0.015397 0.766779
vt 0.144518 0.956533
vt 0.144518 0.766779
vn 0.901373 0.000000 0.433044
vn 0.000000 0.000000 1.000000
vn -0.901373 0.000000 0.433042
vn 0.000000 -1.000000 0.000000
vn 0.000000 0.893133 0.449793
vn -0.901374 0.000000 0.433042
vn 1.000000 -0.000000 0.000000
vn 0.000001 -0.000000 1.000000
vn 0.000000 1.000000 0.000000
vn -1.000000 0.000000 0.000000
vn 0.000000 -0.036902 0.999319
vn -0.000001 -0.036889 0.999319
vn 1.000000 -0.000000 0.000004
vn -1.000000 0.000000 -0.000002
vn 0.000001 0.000000 -1.000000
vn -1.000000 -0.000000 -0.000011
vn 0.000000 0.000000 -1.000000
vn -0.952403 -0.304842 -0.000000
vn -0.000000 -0.304843 0.952403
vn -0.929559 -0.368674 -0.000000
vn 0.929561 -0.368669 0.000000
vn 0.952403 -0.304843 0.000000
vn -0.000000 -0.368669 0.929561
vn 0.000000 -0.368674 -0.929559
vn 0.000000 -0.304842 -0.952403
vn 0.000000 0.973451 -0.228895
vn 0.228897 0.973451 0.000000
vn -0.000000 0.973451 0.228897
vn -0.228895 0.973451 -0.000000
vn 0.819993 -0.572374 0.000000
vn -0.819988 -0.572381 -0.000000
vn -0.000000 -0.572374 0.819993
vn 0.000000 -0.572381 -0.819988
vn -0.757857 0.652421 -0.000000
vn -0.000000 0.669154 0.743123
vn 0.829392 0.558667 0.000000
vn 0.000000 0.535453 -0.844565
vn 0.000000 -0.368675 -0.929558
vn -0.819987 -0.572381 -0.000000
vn 0.000000 -0.572381 -0.819987
vn 0.000000 0.416615 -0.909083
vn 0.999943 0.010634 0.000000
vn -0.000000 0.416615 0.909083
vn -0.999943 0.010633 -0.000000
vn -0.929558 -0.368675 -0.000000
vn -0.000002 0.000000 1.000000
vn 1.000000 -0.000000 0.000002
vn 0.000002 0.000000 -1.000000
vn 0.000000 0.000000 0.000000
s off
f 5/1/1 6/2/1 1/3/1
f 6/2/2 7/4/2 3/5/2
f 7/4/3 8/6/3 4/7/3
f 1/3/4 2/8/4 3/5/4
f 8/6/5 7/4/5 6/2/5
f 6/2/1 2/8/1 1/3/1
f 2/8/2 6/2/2 3/5/2
f 3/5/6 7/4/6 4/7/6
f 4/7/4 1/3/4 3/5/4
f 5/1/5 8/6/5 6/2/5
f 14/9/7 11/10/7 9/11/7
f 11/12/8 12/13/8 10/14/8
f 17/15/9 12/13/9 11/12/9
f 23/16/7 13/17/7 16/18/7
f 12/10/10 17/19/10 20/20/10
f 17/19/10 27/21/10 22/22/10
f 25/23/9 18/24/9 13/25/9
f 21/26/9 22/27/9 27/28/9
f 21/29/7 14/9/7 16/18/7
f 14/9/7 21/29/7 28/21/7
f 18/17/10 25/16/10 22/22/10
f 28/30/11 17/15/11 14/31/11
f 18/24/2 21/26/2 13/25/2
f 15/32/7 14/9/7 9/11/7
f 9/33/8 11/12/8 10/14/8
f 14/31/9 17/15/9 11/12/9
f 24/34/7 23/16/7 16/18/7
f 10/11/10 12/10/10 20/20/10
f 28/30/12 27/28/12 17/15/12
f 23/35/9 25/23/9 13/25/9
f 17/19/10 19/36/10 20/20/10
f 19/36/10 17/19/10 22/22/10
f 25/16/10 26/37/10 19/36/10
f 28/30/9 21/26/9 27/28/9
f 16/18/7 14/9/7 15/32/7
f 21/26/2 18/24/2 22/27/2
f 33/38/13 34/39/13 30/40/13
f 31/41/2 30/40/2 38/42/2
f 35/43/14 36/44/14 32/45/14
f 36/44/15 33/38/15 29/46/15
f 29/46/4 30/40/4 31/41/4
f 36/44/9 35/43/9 34/39/9
f 38/42/9 37/47/9 41/47/9
f 35/43/2 31/41/2 38/42/2
f 30/40/2 34/39/2 39/48/2
f 34/39/2 35/43/2 40/49/2
f 43/48/2 44/49/2 42/42/2
f 37/47/16 39/48/16 43/48/16
f 39/48/4 40/49/4 44/49/4
f 40/49/7 38/42/7 42/42/7
f 29/46/13 33/38/13 30/40/13
f 30/40/2 37/47/2 38/42/2
f 31/41/14 35/43/14 32/45/14
f 32/45/15 36/44/15 29/46/15
f 32/45/4 29/46/4 31/41/4
f 33/38/9 36/44/9 34/39/9
f 42/42/9 38/42/9 41/47/9
f 40/49/2 35/43/2 38/42/2
f 37/47/2 30/40/2 39/48/2
f 39/48/2 34/39/2 40/49/2
f 41/47/2 43/48/2 42/42/2
f 41/47/16 37/47/16 43/48/16
f 43/48/4 39/48/4 44/49/4
f 44/49/7 40/49/7 42/42/7
f 49/50/7 46/51/7 50/52/7
f 50/52/2 47/53/2 51/50/2
f 51/50/10 48/54/10 52/52/10
f 52/52/17 45/55/17 49/50/17
f 48/54/9 53/53/9 45/55/9
f 76/56/17 57/57/17 73/58/17
f 46/51/9 54/59/9 47/53/9
f 45/55/9 54/59/9 46/51/9
f 47/53/9 56/51/9 48/54/9
f 62/60/18 63/61/18 64/62/18
f 73/63/7 58/64/7 74/65/7
f 74/65/2 59/66/2 75/67/2
f 75/67/10 60/68/10 76/56/10
f 101/62/19 61/69/19 62/60/19
f 59/70/20 64/62/20 60/71/20
f 57/70/21 101/62/21 58/71/21
f 104/69/22 102/61/22 103/60/22
f 58/71/23 62/60/23 59/70/23
f 60/71/24 103/60/24 57/70/24
f 63/61/25 104/69/25 64/62/25
f 61/69/18 63/61/18 62/60/18
f 102/61/19 61/69/19 101/62/19
f 56/65/17 69/72/17 53/67/17
f 53/73/7 71/74/7 54/65/7
f 54/65/2 72/75/2 55/67/2
f 55/67/10 70/76/10 56/65/10
f 78/61/26 73/77/26 84/69/26
f 84/69/27 74/78/27 82/61/27
f 82/61/28 75/77/28 80/69/28
f 80/69/29 76/78/29 78/61/29
f 69/70/30 81/62/30 71/71/30
f 72/70/31 77/62/31 70/71/31
f 81/62/19 80/69/19 79/60/19
f 79/60/18 78/61/18 77/62/18
f 77/62/25 84/69/25 83/60/25
f 71/71/32 79/60/32 72/70/32
f 70/71/33 83/60/33 69/70/33
f 83/60/22 82/61/22 81/62/22
f 45/55/7 46/51/7 49/50/7
f 46/51/2 47/53/2 50/52/2
f 47/53/10 48/54/10 51/50/10
f 48/54/17 45/55/17 52/52/17
f 56/51/9 53/53/9 48/54/9
f 60/68/17 57/57/17 76/56/17
f 53/53/9 54/59/9 45/55/9
f 55/79/9 56/51/9 47/53/9
f 61/69/34 65/78/34 63/61/34
f 57/72/7 58/64/7 73/63/7
f 58/64/2 59/66/2 74/65/2
f 59/66/10 60/68/10 75/67/10
f 102/61/35 66/77/35 61/69/35
f 104/69/36 67/78/36 102/61/36
f 63/61/37 68/77/37 104/69/37
f 66/77/34 65/78/34 61/69/34
f 67/78/35 66/77/35 102/61/35
f 68/77/36 67/78/36 104/69/36
f 65/78/37 68/77/37 63/61/37
f 103/60/22 102/61/22 101/62/22
f 101/62/23 62/60/23 58/71/23
f 64/62/38 103/60/38 60/71/38
f 64/62/25 104/69/25 103/60/25
f 70/76/17 69/72/17 56/65/17
f 69/72/7 71/74/7 53/73/7
f 71/74/2 72/75/2 54/65/2
f 72/75/10 70/76/10 55/67/10
f 76/78/26 73/77/26 78/61/26
f 73/77/27 74/78/27 84/69/27
f 74/78/28 75/77/28 82/61/28
f 75/77/29 76/78/29 80/69/29
f 83/60/30 81/62/30 69/70/30
f 79/60/39 77/62/39 72/70/39
f 82/61/19 80/69/19 81/62/19
f 80/69/18 78/61/18 79/60/18
f 78/61/25 84/69/25 77/62/25
f 81/62/32 79/60/32 71/71/32
f 77/62/40 83/60/40 70/71/40
f 84/69/22 82/61/22 83/60/22
f 47/53/9 54/59/9 55/79/9
f 65/56/17 85/57/17 68/58/17
f 88/80/4 89/81/4 85/82/4
f 88/68/17 85/57/17 65/56/17
f 68/63/7 86/64/7 67/65/7
f 87/66/10 88/68/10 66/67/10
f 92/83/17 93/84/17 89/81/17
f 85/82/4 90/83/4 86/80/4
f 86/80/4 91/81/4 87/82/4
f 87/82/4 92/83/4 88/80/4
f 96/85/41 97/86/41 93/84/41
f 91/81/10 96/85/10 92/83/10
f 89/81/7 94/85/7 90/83/7
f 90/83/2 95/84/2 91/81/2
f 97/87/9 99/88/9 98/89/9
f 93/84/42 98/90/42 94/85/42
f 94/85/43 99/86/43 95/84/43
f 95/84/44 100/90/44 96/85/44
f 66/67/10 88/68/10 65/56/10
f 92/83/4 89/81/4 88/80/4
f 67/65/2 87/66/2 66/67/2
f 86/64/2 87/66/2 67/65/2
f 96/85/17 93/84/17 92/83/17
f 89/81/4 90/83/4 85/82/4
f 90/83/4 91/81/4 86/80/4
f 91/81/4 92/83/4 87/82/4
f 100/90/41 97/86/41 96/85/41
f 95/84/10 96/85/10 91/81/10
f 93/84/7 94/85/7 89/81/7
f 94/85/2 95/84/2 90/83/2
f 100/91/9 99/88/9 97/87/9
f 97/86/42 98/90/42 93/84/42
f 98/90/43 99/86/43 94/85/43
f 99/86/44 100/90/44 95/84/44
f 85/72/7 86/64/7 68/63/7
f 62/60/45 64/62/45 59/70/45
f 103/60/21 101/62/21 57/70/21
f 109/92/7 110/93/7 106/94/7
f 110/93/2 111/95/2 107/96/2
f 111/95/10 112/97/10 108/98/10
f 105/99/4 106/94/4 107/96/4
f 112/97/9 111/95/9 110/93/9
f 105/99/7 109/92/7 106/94/7
f 106/94/2 110/93/2 107/96/2
f 107/96/10 111/95/10 108/98/10
f 108/98/4 105/99/4 107/96/4
f 109/92/9 112/97/9 110/93/9
f 117/100/17 118/100/17 114/101/17
f 118/100/7 119/102/7 115/103/7
f 119/102/46 120/102/46 116/103/46
f 113/101/4 114/101/4 115/103/4
f 120/102/9 119/102/9 118/100/9
f 113/101/17 117/100/17 114/101/17
f 114/101/7 118/100/7 115/103/7
f 115/103/46 119/102/46 116/103/46
f 116/103/4 113/101/4 115/103/4
f 117/100/9 120/102/9 118/100/9
f 125/100/46 126/100/46 122/101/46
f 126/100/10 127/102/10 123/103/10
f 127/102/17 128/102/17 124/103/17
f 121/101/4 122/101/4 123/103/4
f 128/102/9 127/102/9 126/100/9
f 121/101/46 125/100/46 122/101/46
f 122/101/10 126/100/10 123/103/10
f 123/103/17 127/102/17 124/103/17
f 124/103/4 121/101/4 123/103/4
f 125/100/9 128/102/9 126/100/9
f 133/100/47 134/100/47 130/101/47
f 134/100/2 135/102/2 131/103/2
f 135/102/10 136/102/10 132/103/10
f 129/101/4 130/101/4 131/103/4
f 136/102/9 135/102/9 134/100/9
f 129/101/47 133/100/47 130/101/47
f 130/101/2 134/100/2 131/103/2
f 131/103/10 135/102/10 132/103/10
f 132/103/4 129/101/4 131/103/4
f 133/100/9 136/102/9 134/100/9
f 141/100/10 142/100/10 138/101/10
f 142/100/17 143/102/17 139/103/17
f 143/102/7 144/102/7 140/103/7
f 137/101/4 138/101/4 139/103/4
f 144/102/9 143/102/9 142/100/9
f 137/101/10 141/100/10 138/101/10
f 138/101/17 142/100/17 139/103/17
f 139/103/7 143/102/7 140/103/7
f 140/103/4 137/101/4 139/103/4
f 141/100/9 144/102/9 142/100/9
f 149/100/17 150/100/17 146/101/17
f 150/100/7 151/102/7 147/103/7
f 151/102/46 152/102/46 148/103/46
f 145/101/4 146/101/4 147/103/4
f 152/102/9 151/102/9 150/100/9
f 145/101/17 149/100/17 146/101/17
f 146/101/7 150/100/7 147/103/7
f 147/103/46 151/102/46 148/103/46
f 148/103/4 145/101/4 147/103/4
f 149/100/9 152/102/9 150/100/9
f 157/100/2 158/100/2 154/101/2
f 158/100/10 159/102/10 155/103/10
f 159/102/48 160/102/48 156/103/48
f 153/101/4 154/101/4 155/103/4
f 160/102/9 159/102/9 158/100/9
f 153/101/2 157/100/2 154/101/2
f 154/101/10 158/100/10 155/103/10
f 155/103/48 159/102/48 156/103/48
f 156/103/4 153/101/4 155/103/4
f 157/100/9 160/102/9 158/100/9
f 165/92/7 166/93/7 162/94/7
f 166/93/2 167/95/2 163/96/2
f 167/95/10 168/97/10 164/98/10
f 161/99/4 162/94/4 163/96/4
f 168/97/9 167/95/9 166/93/9
f 161/99/7 165/92/7 162/94/7
f 162/94/2 166/93/2 163/96/2
f 163/96/10 167/95/10 164/98/10
f 164/98/4 161/99/4 163/96/4
f 165/92/9 168/97/9 166/93/9
f 173/92/10 174/93/10 170/94/10
f 174/93/17 175/95/17 171/96/17
f 175/95/7 176/97/7 172/98/7
f 169/99/4 170/94/4 171/96/4
f 176/97/9 175/95/9 174/93/9
f 169/99/10 173/92/10 170/94/10
f 170/94/17 174/93/17 171/96/17
f 171/96/7 175/95/7 172/98/7
f 172/98/4 169/99/4 171/96/4
f 173/92/9 176/97/9 174/93/9
f 181/92/10 182/93/10 178/94/10
f 182/93/17 183/95/17 179/96/17
f 183/95/7 184/97/7 180/98/7
f 177/99/4 178/94/4 179/96/4
f 184/97/9 183/95/9 182/93/9
f 177/99/10 181/92/10 178/94/10
f 178/94/17 182/93/17 179/96/17
f 179/96/7 183/95/7 180/98/7
f 180/98/4 177/99/4 179/96/4
f 181/92/9 184/97/9 182/93/9
f 13/17/49 21/29/49 16/18/49
f 25/16/10 19/36/10 22/22/10
