# Blender v2.67 (sub 0) OBJ File: 'casa2.blend'
# www.blender.org
o Cube.021_Cube.022
v 2.343944 0.702825 3.905220
v 2.264421 0.702825 4.070744
v 1.735195 0.702825 4.070744
v 1.655673 0.702825 3.905221
v 2.343944 0.830549 3.905220
v 2.264421 0.747189 4.070744
v 1.735195 0.747189 4.070744
v 1.655673 0.830549 3.905221
v 2.237468 -0.019656 4.259117
v 1.790139 -0.019656 4.259117
v 2.237468 0.030461 4.259117
v 1.790139 0.030461 4.259117
v 2.237468 0.125064 4.077681
v 2.237468 0.030461 4.168399
v 2.237468 -0.019656 4.168399
v 2.237468 -0.019656 4.077681
v 1.790139 0.030461 4.168399
v 1.790139 0.125064 4.077681
v 1.790139 -0.019656 4.077681
v 1.790139 -0.019656 4.168399
v 2.237468 0.066953 4.077681
v 1.790139 0.066953 4.077681
v 2.237468 0.125064 3.987649
v 2.237468 -0.019656 3.986963
v 1.790139 0.125064 3.987649
v 1.790139 -0.019656 3.986963
v 1.790139 0.066953 4.169746
v 2.237468 0.066953 4.169746
v 2.194448 0.123897 3.905553
v 2.194448 0.123897 3.966825
v 1.819846 0.123897 3.966825
v 1.819846 0.123897 3.905553
v 2.194448 0.708299 3.905553
v 2.194448 0.708299 3.966825
v 1.819846 0.708299 3.966825
v 1.819846 0.708299 3.905553
v 2.165205 0.153141 3.966825
v 1.849089 0.153141 3.966825
v 2.165205 0.679056 3.966825
v 1.849089 0.679056 3.966825
v 2.165205 0.153141 3.944228
v 1.849089 0.153141 3.944228
v 2.165205 0.679056 3.944228
v 1.849089 0.679056 3.944228
v 3.999618 0.170902 0.000001
v 3.999617 0.170902 3.999619
v -0.000001 0.170902 3.999618
v -0.000000 0.170902 -0.000000
v 3.999618 0.000000 0.000001
v 3.999617 0.000000 3.999619
v -0.000001 0.000000 3.999618
v -0.000000 0.000000 -0.000000
v 3.915114 0.170902 0.084505
v 3.915113 0.170902 3.915114
v 0.084503 0.170902 3.915114
v 0.084504 0.170902 0.084504
v 3.915114 1.163565 0.084505
v 3.915113 1.163565 3.915114
v 0.084503 1.163565 3.915114
v 0.084504 1.163565 0.084504
v 0.060348 1.229290 3.939269
v 0.070955 1.196152 3.928662
v 0.060349 1.229290 0.060349
v 0.070956 1.196152 0.070956
v 0.087452 1.260773 0.080309
v 0.087452 1.260773 3.910920
v 3.918061 1.260773 3.910920
v 3.918062 1.260773 0.080310
v 3.918062 2.327247 0.080310
v 3.918061 2.327247 3.910920
v 0.087452 2.327247 3.910920
v 0.087452 2.327247 0.080309
v 3.997582 2.327247 0.000791
v 3.997581 2.327247 3.990439
v 0.007932 2.327247 3.990439
v 0.007933 2.327247 0.000790
v 3.997582 2.415703 0.000791
v 3.997581 2.415703 3.990439
v 0.007932 2.415703 3.990439
v 0.007933 2.415703 0.000790
v 2.064250 2.992951 0.237429
v 2.064250 2.992951 3.753800
v 1.941264 2.992951 3.753800
v 1.941264 2.992951 0.237429
v 3.928661 1.196152 3.928663
v 3.939268 1.229290 3.939270
v 3.928662 1.196152 0.070956
v 3.939269 1.229290 0.060350
v 1.209771 1.420381 3.909816
v 1.209771 1.420381 3.957852
v 0.783586 1.420381 3.957852
v 0.783586 1.547507 3.909815
v 1.209771 2.194494 3.909816
v 1.209771 2.194494 3.957852
v 0.783586 2.194494 3.957852
v 0.783586 2.194494 3.909815
v 2.225533 1.420381 3.909816
v 2.225533 1.420381 3.957853
v 1.799348 1.420381 3.957852
v 1.799348 1.547507 3.909816
v 2.225533 2.194494 3.909816
v 2.225533 2.194494 3.957853
v 1.799348 2.194494 3.957852
v 1.799348 2.194494 3.909816
v 3.274873 1.420381 3.909816
v 3.274873 1.420381 3.957853
v 2.848688 1.420381 3.957853
v 2.848688 1.547507 3.909816
v 3.274873 2.194494 3.909816
v 3.274873 2.194494 3.957853
v 2.848688 2.194494 3.957853
v 2.848688 2.194494 3.909816
v 1.209771 0.263290 3.909816
v 1.209771 0.263290 3.957852
v 0.783586 0.263290 3.957852
v 0.783586 0.390415 3.909815
v 1.209771 1.037402 3.909816
v 1.209771 1.037402 3.957852
v 0.783586 1.037402 3.957852
v 0.783586 1.037402 3.909815
v 3.274873 0.263290 3.909816
v 3.274873 0.263290 3.957853
v 2.848688 0.263290 3.957853
v 2.848688 0.390415 3.909816
v 3.274873 1.037402 3.909816
v 3.274873 1.037402 3.957853
v 2.848688 1.037402 3.957853
v 2.848688 1.037402 3.909816
v 2.837496 1.420381 0.095537
v 2.837496 1.420381 0.047500
v 3.263681 1.420381 0.047500
v 3.263681 1.547507 0.095537
v 2.837496 2.194494 0.095537
v 2.837496 2.194494 0.047500
v 3.263681 2.194494 0.047500
v 3.263681 2.194494 0.095537
v 1.821735 1.420381 0.095537
v 1.821735 1.420381 0.047500
v 2.247919 1.420381 0.047500
v 2.247919 1.547507 0.095537
v 1.821735 2.194494 0.095537
v 1.821735 2.194494 0.047500
v 2.247919 2.194494 0.047500
v 2.247919 2.194494 0.095537
v 0.772394 1.420381 0.095537
v 0.772394 1.420381 0.047500
v 1.198579 1.420381 0.047500
v 1.198579 1.547507 0.095537
v 0.772394 2.194494 0.095537
v 0.772394 2.194494 0.047500
v 1.198579 2.194494 0.047500
v 1.198579 2.194494 0.095537
v 2.837496 0.263290 0.095537
v 2.837496 0.263290 0.047500
v 3.263681 0.263290 0.047500
v 3.263681 0.390415 0.095537
v 2.837496 1.037402 0.095537
v 2.837496 1.037402 0.047500
v 3.263681 1.037402 0.047500
v 3.263681 1.037402 0.095537
v 1.821735 0.263290 0.095537
v 1.821735 0.263290 0.047500
v 2.247919 0.263290 0.047500
v 2.247919 0.390415 0.095537
v 1.821735 1.037402 0.095537
v 1.821735 1.037402 0.047500
v 2.247919 1.037402 0.047500
v 2.247919 1.037402 0.095537
v 0.772394 0.263290 0.095537
v 0.772394 0.263290 0.047500
v 1.198579 0.263290 0.047500
v 1.198579 0.390415 0.095537
v 0.772394 1.037402 0.095537
v 0.772394 1.037402 0.047500
v 1.198579 1.037402 0.047500
v 1.198579 1.037402 0.095537
v 3.950593 0.679056 2.189406
v 3.916180 1.420381 2.828724
v 3.964217 1.420381 2.828724
v 3.964216 1.420381 3.254909
v 3.916180 1.547507 3.254909
v 3.916180 2.194494 2.828724
v 3.964217 2.194494 2.828724
v 3.964216 2.194494 3.254909
v 3.916180 2.194494 3.254909
v 3.916180 1.420381 1.812963
v 3.964217 1.420381 1.812963
v 3.964217 1.420381 2.239147
v 3.916180 1.547507 2.239147
v 3.916180 2.194494 1.812963
v 3.964217 2.194494 1.812963
v 3.964217 2.194494 2.239147
v 3.916180 2.194494 2.239147
v 3.916180 1.420381 0.763622
v 3.964217 1.420381 0.763622
v 3.964217 1.420381 1.189807
v 3.916180 1.547507 1.189807
v 3.916180 2.194494 0.763622
v 3.964217 2.194494 0.763622
v 3.964217 2.194494 1.189807
v 3.916180 2.194494 1.189807
v 3.916180 0.263290 2.828724
v 3.964217 0.263290 2.828724
v 3.964216 0.263290 3.254909
v 3.916180 0.390415 3.254909
v 3.916180 1.037402 2.828724
v 3.964217 1.037402 2.828724
v 3.964216 1.037402 3.254909
v 3.916180 1.037402 3.254909
v 3.916180 0.263290 1.812963
v 3.964217 0.263290 1.812963
v 3.964217 0.263290 2.239147
v 3.916180 0.390415 2.239147
v 3.916180 1.037402 1.812963
v 3.964217 1.037402 1.812963
v 3.964217 1.037402 2.239147
v 3.916180 1.037402 2.239147
v 3.916180 0.263290 0.763622
v 3.964217 0.263290 0.763622
v 3.964217 0.263290 1.189807
v 3.916180 0.390415 1.189807
v 3.916180 1.037402 0.763622
v 3.964217 1.037402 0.763622
v 3.964217 1.037402 1.189807
v 3.916180 1.037402 1.189807
v 0.101902 1.420381 1.200999
v 0.053864 1.420381 1.200999
v 0.053865 1.420381 0.774814
v 0.101902 1.547507 0.774814
v 0.101902 2.194494 1.200999
v 0.053864 2.194494 1.200999
v 0.053865 2.194494 0.774814
v 0.101902 2.194494 0.774814
v 0.101901 1.420381 2.216760
v 0.053864 1.420381 2.216760
v 0.053864 1.420381 1.790576
v 0.101902 1.547507 1.790576
v 0.101901 2.194494 2.216760
v 0.053864 2.194494 2.216760
v 0.053864 2.194494 1.790576
v 0.101902 2.194494 1.790576
v 0.101901 1.420381 3.266101
v 0.053864 1.420381 3.266101
v 0.053864 1.420381 2.839916
v 0.101901 1.547507 2.839916
v 0.101901 2.194494 3.266101
v 0.053864 2.194494 3.266101
v 0.053864 2.194494 2.839916
v 0.101901 2.194494 2.839916
v 0.101902 0.263290 1.200999
v 0.053864 0.263290 1.200999
v 0.053865 0.263290 0.774814
v 0.101902 0.390415 0.774814
v 0.101902 1.037402 1.200999
v 0.053864 1.037402 1.200999
v 0.053865 1.037402 0.774814
v 0.101902 1.037402 0.774814
v 0.101901 0.263290 2.216760
v 0.053864 0.263290 2.216760
v 0.053864 0.263290 1.790576
v 0.101902 0.390415 1.790576
v 0.101901 1.037402 2.216760
v 0.053864 1.037402 2.216760
v 0.053864 1.037402 1.790576
v 0.101902 1.037402 1.790576
v 0.101901 0.263290 3.266101
v 0.053864 0.263290 3.266101
v 0.053864 0.263290 2.839916
v 0.101901 0.390415 2.839916
v 0.101901 1.037402 3.266101
v 0.053864 1.037402 3.266101
v 0.053864 1.037402 2.839916
v 0.101901 1.037402 2.839916
v 3.662005 1.352006 3.819233
v 3.662005 1.352006 4.062490
v 0.336505 1.352006 4.062488
v 0.336505 1.352006 3.819232
v 3.662005 1.626562 3.819233
v 3.662005 1.626562 4.062490
v 0.336505 1.626562 4.062488
v 0.336505 1.626562 3.819232
v 3.848615 1.352006 0.335545
v 4.091871 1.352006 0.335545
v 4.091870 1.352006 3.661045
v 3.848614 1.352006 3.661045
v 3.848615 1.626562 0.335545
v 4.091871 1.626562 0.335545
v 4.091870 1.626562 3.661045
v 3.848614 1.626562 3.661045
v 0.337489 1.352006 0.174224
v 0.337488 1.352006 -0.069032
v 3.662988 1.352006 -0.069030
v 3.662988 1.352006 0.174225
v 0.337489 1.626562 0.174224
v 0.337488 1.626562 -0.069032
v 3.662988 1.626562 -0.069030
v 3.662988 1.626562 0.174225
v 0.150878 1.352006 3.657912
v -0.092378 1.352006 3.657913
v -0.092377 1.352006 0.332412
v 0.150879 1.352006 0.332412
v 0.150878 1.626562 3.657912
v -0.092378 1.626562 3.657913
v -0.092377 1.626562 0.332412
v 0.150879 1.626562 0.332412
vt 0.064375 0.613088
vt 0.063386 0.595457
vt 0.081671 0.545166
vt 0.055501 0.600356
vt 0.052076 0.591700
vt 0.040731 0.611241
vt 0.038010 0.545166
vt 0.056940 0.588858
vt 0.789611 0.611828
vt 0.755825 0.611676
vt 0.755664 0.647474
vt 0.883025 0.623009
vt 0.983051 0.623009
vt 0.983051 0.644205
vt 0.983051 0.603004
vt 0.857234 0.544557
vt 0.823703 0.544406
vt 0.823237 0.647778
vt 0.789612 0.611828
vt 0.789451 0.647626
vt 0.789227 0.585760
vt 0.823516 0.585914
vt 0.983051 0.522834
vt 0.983051 0.542688
vt 0.883025 0.542688
vt 0.883025 0.567265
vt 0.983051 0.567265
vt 0.983051 0.587567
vt 0.823515 0.585914
vt 0.883025 0.587567
vt 0.883025 0.603004
vt 0.789450 0.647626
vt 0.883025 0.644205
vt 0.857024 0.647930
vt 0.883025 0.522834
vt 0.823238 0.647778
vt 0.857025 0.647930
vt 0.584592 0.977511
vt 0.580564 0.971226
vt 0.580564 0.681769
vt 0.395021 0.681769
vt 0.409506 0.696254
vt 0.395021 0.971226
vt 0.390993 0.977511
vt 0.390993 0.675485
vt 0.584592 0.675485
vt 0.566080 0.696254
vt 0.566080 0.956742
vt 0.409506 0.956742
vt 0.948797 0.778716
vt 0.715030 0.842973
vt 0.642697 0.776262
vt 0.882103 0.850590
vt 0.719252 0.846857
vt 0.878062 0.854988
vt 0.719657 0.847853
vt 0.949934 0.713322
vt 0.712195 0.761123
vt 0.664930 0.710565
vt 0.900727 0.759949
vt 0.988161 0.676130
vt 0.626673 0.671039
vt 0.020197 0.014534
vt 0.978424 0.014537
vt 0.020196 0.352779
vt 0.978421 0.014532
vt 0.980346 0.352777
vt 0.020200 0.014537
vt 0.020200 0.352790
vt 0.878570 0.853943
vt 0.719423 0.768728
vt 0.893410 0.766924
vt 0.980345 0.352777
vt 0.020198 0.014527
vt 0.020205 0.352798
vt 0.863494 0.401210
vt 0.125110 0.383032
vt 0.140126 0.401210
vt 0.978423 0.014527
vt 0.020209 0.352807
vt 0.978423 0.014528
vt 0.020198 0.014526
vt 0.878510 0.383032
vt 0.112693 0.368001
vt 0.890926 0.368001
vt 0.163221 0.648606
vt 0.028129 0.463554
vt 0.086572 0.521996
vt 0.028129 0.521996
vt 0.840399 0.648606
vt 0.086572 0.463554
vt 0.272526 0.978845
vt 0.272526 0.678232
vt 0.097977 0.978845
vt 0.097977 0.678232
vt 0.097977 0.678233
vt 0.272526 0.678233
vt 0.980750 0.954382
vt 0.980750 0.918388
vt 0.635685 0.954382
vt 0.635685 0.918388
vn 0.901372 0.000000 0.433045
vn 0.000000 0.000000 1.000000
vn -0.901372 0.000000 0.433045
vn 0.000000 -1.000000 0.000000
vn 0.000000 0.893132 0.449794
vn 0.000000 0.893133 0.449794
vn 1.000000 -0.000000 0.000000
vn 0.000000 1.000000 0.000000
vn -1.000000 0.000000 -0.000001
vn -1.000000 -0.000000 0.000000
vn 0.000000 -0.036902 0.999319
vn -0.000001 -0.036889 0.999319
vn -0.000001 0.000001 1.000000
vn 0.000000 0.000000 -1.000000
vn -0.000001 -0.000001 1.000000
vn -0.000001 0.000000 1.000000
vn -0.000002 -0.000002 1.000000
vn -0.000002 0.000002 1.000000
vn -0.952403 -0.304842 -0.000000
vn -0.000000 -0.304843 0.952403
vn -0.923374 -0.383901 -0.000000
vn 0.923374 -0.383901 0.000000
vn 0.952403 -0.304843 0.000000
vn -0.000000 -0.383901 0.923374
vn 0.000000 -0.383901 -0.923374
vn 0.000000 -0.304842 -0.952403
vn -0.757857 0.652421 -0.000000
vn -0.000000 0.669151 0.743126
vn 0.829392 0.558667 0.000000
vn 0.000000 0.535453 -0.844565
vn -0.000000 0.669154 0.743123
vn 0.829395 0.558662 0.000000
vn -0.000000 -0.383906 0.923372
vn 0.000000 0.379309 -0.925270
vn 0.286096 0.958201 0.000000
vn -0.000000 0.379309 0.925270
vn -0.286096 0.958201 -0.000000
vn 0.923377 -0.383895 0.000000
vn -0.104855 -0.351527 -0.930287
vn -0.104856 -0.351527 -0.930287
vn -1.000000 0.000000 -0.000005
vn 0.000001 0.000000 -1.000000
vn 0.104856 -0.351528 0.930287
vn 0.104857 -0.351530 0.930286
vn 0.104856 -0.351529 0.930286
vn 1.000000 -0.000000 0.000001
vn -0.930287 -0.351527 0.104856
vn 0.000002 0.000000 -1.000000
vn -0.930286 -0.351528 0.104856
vn 0.000004 0.000000 -1.000000
vn -0.930288 -0.351525 0.104855
vn 0.930286 -0.351530 -0.104856
vn -0.000010 0.000000 1.000000
vn 0.000010 0.000000 -1.000000
vn 0.930287 -0.351528 -0.104856
vn 1.000000 0.000000 -0.000002
vn -0.000002 0.000000 -1.000000
vn -1.000000 0.000000 0.000001
vn 0.000002 -0.000000 1.000000
vn 0.000000 0.000000 0.000000
s off
f 5/1/1 6/2/1 1/3/1
f 6/2/2 7/4/2 3/5/2
f 7/4/3 8/6/3 4/7/3
f 1/3/4 2/8/4 3/5/4
f 8/6/5 7/4/5 6/2/5
f 6/2/1 2/8/1 1/3/1
f 2/8/2 6/2/2 3/5/2
f 3/5/3 7/4/3 4/7/3
f 4/7/4 1/3/4 3/5/4
f 5/1/6 8/6/6 6/2/6
f 14/9/7 11/10/7 9/11/7
f 11/12/2 12/13/2 10/14/2
f 17/15/8 12/13/8 11/12/8
f 23/16/7 13/17/7 16/18/7
f 12/10/9 17/19/9 20/20/9
f 17/19/10 27/21/10 22/22/10
f 25/23/8 18/24/8 13/25/8
f 21/26/8 22/27/8 27/28/8
f 21/29/7 14/9/7 16/18/7
f 14/9/7 21/29/7 28/21/7
f 18/17/10 25/16/10 22/22/10
f 28/30/11 17/15/11 14/31/11
f 18/24/2 21/26/2 13/25/2
f 15/32/7 14/9/7 9/11/7
f 9/33/2 11/12/2 10/14/2
f 14/31/8 17/15/8 11/12/8
f 24/34/7 23/16/7 16/18/7
f 10/11/9 12/10/9 20/20/9
f 28/30/12 27/28/12 17/15/12
f 23/35/8 25/23/8 13/25/8
f 17/19/10 19/36/10 20/20/10
f 19/36/10 17/19/10 22/22/10
f 25/16/10 26/37/10 19/36/10
f 28/30/8 21/26/8 27/28/8
f 16/18/7 14/9/7 15/32/7
f 21/26/2 18/24/2 22/27/2
f 33/38/7 34/39/7 30/40/7
f 31/41/13 30/40/13 38/42/13
f 35/43/10 36/44/10 32/45/10
f 36/44/14 33/38/14 29/46/14
f 29/46/4 30/40/4 31/41/4
f 36/44/8 35/43/8 34/39/8
f 38/42/8 37/47/8 41/47/8
f 35/43/2 31/41/2 38/42/2
f 30/40/2 34/39/2 39/48/2
f 34/39/15 35/43/15 40/49/15
f 43/48/16 44/49/16 42/42/16
f 37/47/10 39/48/10 43/48/10
f 39/48/4 40/49/4 44/49/4
f 40/49/7 38/42/7 42/42/7
f 29/46/7 33/38/7 30/40/7
f 30/40/17 37/47/17 38/42/17
f 31/41/10 35/43/10 32/45/10
f 32/45/14 36/44/14 29/46/14
f 32/45/4 29/46/4 31/41/4
f 33/38/8 36/44/8 34/39/8
f 42/42/8 38/42/8 41/47/8
f 40/49/2 35/43/2 38/42/2
f 37/47/2 30/40/2 39/48/2
f 39/48/18 34/39/18 40/49/18
f 41/47/16 43/48/16 42/42/16
f 41/47/10 37/47/10 43/48/10
f 43/48/4 39/48/4 44/49/4
f 44/49/7 40/49/7 42/42/7
f 49/50/7 46/51/7 50/52/7
f 50/52/2 47/53/2 51/50/2
f 51/50/10 48/54/10 52/52/10
f 52/52/14 45/55/14 49/50/14
f 48/54/8 53/53/8 45/55/8
f 46/51/8 54/56/8 47/53/8
f 45/55/8 54/56/8 46/51/8
f 47/53/8 56/51/8 48/54/8
f 62/57/19 63/58/19 64/59/19
f 85/59/20 61/60/20 62/57/20
f 59/61/21 64/59/21 60/62/21
f 57/61/22 85/59/22 58/62/22
f 88/60/23 86/58/23 87/57/23
f 58/62/24 62/57/24 59/61/24
f 60/62/25 87/57/25 57/61/25
f 63/58/26 88/60/26 64/59/26
f 61/60/19 63/58/19 62/57/19
f 86/58/20 61/60/20 85/59/20
f 59/63/10 60/64/10 55/65/10
f 58/66/2 59/63/2 54/67/2
f 57/68/7 58/66/7 53/69/7
f 45/55/7 46/51/7 49/50/7
f 46/51/2 47/53/2 50/52/2
f 47/53/10 48/54/10 51/50/10
f 48/54/14 45/55/14 52/52/14
f 56/51/8 53/53/8 48/54/8
f 53/53/8 54/56/8 45/55/8
f 55/70/8 56/51/8 47/53/8
f 61/60/27 65/71/27 63/58/27
f 86/58/28 66/72/28 61/60/28
f 88/60/29 67/71/29 86/58/29
f 63/58/30 68/72/30 88/60/30
f 66/72/27 65/71/27 61/60/27
f 67/71/31 66/72/31 86/58/31
f 68/72/32 67/71/32 88/60/32
f 65/71/30 68/72/30 63/58/30
f 87/57/23 86/58/23 85/59/23
f 85/59/33 62/57/33 58/62/33
f 64/59/25 87/57/25 60/62/25
f 64/59/26 88/60/26 87/57/26
f 60/64/14 57/68/14 56/67/14
f 53/69/7 58/66/7 54/67/7
f 47/53/8 54/56/8 55/70/8
f 65/73/14 69/74/14 68/75/14
f 72/76/4 73/77/4 69/78/4
f 72/79/14 69/74/14 65/73/14
f 68/80/7 70/81/7 67/67/7
f 71/82/10 72/79/10 66/65/10
f 76/83/14 77/84/14 73/77/14
f 69/78/4 74/83/4 70/76/4
f 70/76/4 75/77/4 71/78/4
f 71/78/4 76/83/4 72/76/4
f 80/85/34 81/86/34 77/84/34
f 75/77/10 80/85/10 76/83/10
f 73/77/7 78/85/7 74/83/7
f 74/83/2 79/84/2 75/77/2
f 81/87/8 83/88/8 82/89/8
f 77/84/35 82/90/35 78/85/35
f 78/85/36 83/86/36 79/84/36
f 79/84/37 84/90/37 80/85/37
f 66/65/10 72/79/10 65/73/10
f 76/83/4 73/77/4 72/76/4
f 67/67/2 71/82/2 66/65/2
f 70/81/2 71/82/2 67/67/2
f 80/85/14 77/84/14 76/83/14
f 73/77/4 74/83/4 69/78/4
f 74/83/4 75/77/4 70/76/4
f 75/77/4 76/83/4 71/78/4
f 84/90/34 81/86/34 80/85/34
f 79/84/10 80/85/10 75/77/10
f 77/84/7 78/85/7 73/77/7
f 78/85/2 79/84/2 74/83/2
f 84/91/8 83/88/8 81/87/8
f 81/86/35 82/90/35 77/84/35
f 82/90/36 83/86/36 78/85/36
f 83/86/37 84/90/37 79/84/37
f 69/68/7 70/81/7 68/80/7
f 62/57/21 64/59/21 59/61/21
f 87/57/38 85/59/38 57/61/38
f 93/92/7 94/92/7 90/93/7
f 94/92/16 95/94/16 91/95/16
f 95/94/10 96/94/10 92/96/10
f 89/97/4 90/93/4 91/95/4
f 96/94/8 95/94/8 94/92/8
f 89/97/7 93/92/7 90/93/7
f 90/93/16 94/92/16 91/95/16
f 91/95/10 95/94/10 92/96/10
f 92/96/39 89/97/39 91/95/39
f 93/92/8 96/94/8 94/92/8
f 101/92/7 102/92/7 98/93/7
f 102/92/16 103/94/16 99/95/16
f 103/94/10 104/94/10 100/96/10
f 97/97/4 98/93/4 99/95/4
f 104/94/8 103/94/8 102/92/8
f 97/97/7 101/92/7 98/93/7
f 98/93/16 102/92/16 99/95/16
f 99/95/10 103/94/10 100/96/10
f 100/96/40 97/97/40 99/95/40
f 101/92/8 104/94/8 102/92/8
f 109/92/7 110/92/7 106/93/7
f 110/92/16 111/94/16 107/95/16
f 111/94/41 112/94/41 108/96/41
f 105/97/4 106/93/4 107/95/4
f 112/94/8 111/94/8 110/92/8
f 105/97/7 109/92/7 106/93/7
f 106/93/16 110/92/16 107/95/16
f 107/95/41 111/94/41 108/96/41
f 108/96/40 105/97/40 107/95/40
f 109/92/8 112/94/8 110/92/8
f 117/92/7 118/92/7 114/93/7
f 118/92/16 119/94/16 115/95/16
f 119/94/10 120/94/10 116/96/10
f 113/97/4 114/93/4 115/95/4
f 120/94/8 119/94/8 118/92/8
f 113/97/7 117/92/7 114/93/7
f 114/93/16 118/92/16 115/95/16
f 115/95/10 119/94/10 116/96/10
f 116/96/39 113/97/39 115/95/39
f 117/92/8 120/94/8 118/92/8
f 125/92/7 126/92/7 122/93/7
f 126/92/16 127/94/16 123/95/16
f 127/94/41 128/94/41 124/96/41
f 121/97/4 122/93/4 123/95/4
f 128/94/8 127/94/8 126/92/8
f 121/97/7 125/92/7 122/93/7
f 122/93/16 126/92/16 123/95/16
f 123/95/41 127/94/41 124/96/41
f 124/96/40 121/97/40 123/95/40
f 125/92/8 128/94/8 126/92/8
f 133/92/10 134/92/10 130/93/10
f 134/92/42 135/94/42 131/95/42
f 135/94/7 136/94/7 132/96/7
f 129/97/4 130/93/4 131/95/4
f 136/94/8 135/94/8 134/92/8
f 129/97/10 133/92/10 130/93/10
f 130/93/42 134/92/42 131/95/42
f 131/95/7 135/94/7 132/96/7
f 132/96/43 129/97/43 131/95/43
f 133/92/8 136/94/8 134/92/8
f 141/92/10 142/92/10 138/93/10
f 142/92/14 143/94/14 139/95/14
f 143/94/7 144/94/7 140/96/7
f 137/97/4 138/93/4 139/95/4
f 144/94/8 143/94/8 142/92/8
f 137/97/10 141/92/10 138/93/10
f 138/93/14 142/92/14 139/95/14
f 139/95/7 143/94/7 140/96/7
f 140/96/44 137/97/44 139/95/44
f 141/92/8 144/94/8 142/92/8
f 149/92/10 150/92/10 146/93/10
f 150/92/14 151/94/14 147/95/14
f 151/94/7 152/94/7 148/96/7
f 145/97/4 146/93/4 147/95/4
f 152/94/8 151/94/8 150/92/8
f 145/97/10 149/92/10 146/93/10
f 146/93/14 150/92/14 147/95/14
f 147/95/7 151/94/7 148/96/7
f 148/96/43 145/97/43 147/95/43
f 149/92/8 152/94/8 150/92/8
f 157/92/10 158/92/10 154/93/10
f 158/92/42 159/94/42 155/95/42
f 159/94/7 160/94/7 156/96/7
f 153/97/4 154/93/4 155/95/4
f 160/94/8 159/94/8 158/92/8
f 153/97/10 157/92/10 154/93/10
f 154/93/42 158/92/42 155/95/42
f 155/95/7 159/94/7 156/96/7
f 156/96/45 153/97/45 155/95/45
f 157/92/8 160/94/8 158/92/8
f 165/92/10 166/92/10 162/93/10
f 166/92/14 167/94/14 163/95/14
f 167/94/7 168/94/7 164/96/7
f 161/97/4 162/93/4 163/95/4
f 168/94/8 167/94/8 166/92/8
f 161/97/10 165/92/10 162/93/10
f 162/93/14 166/92/14 163/95/14
f 163/95/7 167/94/7 164/96/7
f 164/96/44 161/97/44 163/95/44
f 165/92/8 168/94/8 166/92/8
f 173/92/10 174/92/10 170/93/10
f 174/92/14 175/94/14 171/95/14
f 175/94/7 176/94/7 172/96/7
f 169/97/4 170/93/4 171/95/4
f 176/94/8 175/94/8 174/92/8
f 169/97/10 173/92/10 170/93/10
f 170/93/14 174/92/14 171/95/14
f 171/95/7 175/94/7 172/96/7
f 172/96/45 169/97/45 171/95/45
f 173/92/8 176/94/8 174/92/8
f 182/92/14 183/92/14 179/93/14
f 183/92/46 184/94/46 180/95/46
f 184/94/2 185/94/2 181/96/2
f 178/97/4 179/93/4 180/95/4
f 185/94/8 184/94/8 183/92/8
f 178/97/14 182/92/14 179/93/14
f 179/93/46 183/92/46 180/95/46
f 180/95/2 184/94/2 181/96/2
f 181/96/47 178/97/47 180/95/47
f 182/92/8 185/94/8 183/92/8
f 190/92/48 191/92/48 187/93/48
f 191/92/7 192/94/7 188/95/7
f 192/94/2 193/94/2 189/96/2
f 186/97/4 187/93/4 188/95/4
f 193/94/8 192/94/8 191/92/8
f 186/97/48 190/92/48 187/93/48
f 187/93/7 191/92/7 188/95/7
f 188/95/2 192/94/2 189/96/2
f 189/96/49 186/97/49 188/95/49
f 190/92/8 193/94/8 191/92/8
f 198/92/50 199/92/50 195/93/50
f 199/92/46 200/94/46 196/95/46
f 200/94/2 201/94/2 197/96/2
f 194/97/4 195/93/4 196/95/4
f 201/94/8 200/94/8 199/92/8
f 194/97/50 198/92/50 195/93/50
f 195/93/46 199/92/46 196/95/46
f 196/95/2 200/94/2 197/96/2
f 197/96/51 194/97/51 196/95/51
f 198/92/8 201/94/8 199/92/8
f 206/92/14 207/92/14 203/93/14
f 207/92/46 208/94/46 204/95/46
f 208/94/2 209/94/2 205/96/2
f 202/97/4 203/93/4 204/95/4
f 209/94/8 208/94/8 207/92/8
f 202/97/14 206/92/14 203/93/14
f 203/93/46 207/92/46 204/95/46
f 204/95/2 208/94/2 205/96/2
f 205/96/47 202/97/47 204/95/47
f 206/92/8 209/94/8 207/92/8
f 214/92/48 215/92/48 211/93/48
f 215/92/7 216/94/7 212/95/7
f 216/94/2 217/94/2 213/96/2
f 210/97/4 211/93/4 212/95/4
f 217/94/8 216/94/8 215/92/8
f 210/97/48 214/92/48 211/93/48
f 211/93/7 215/92/7 212/95/7
f 212/95/2 216/94/2 213/96/2
f 213/96/49 210/97/49 212/95/49
f 214/92/8 217/94/8 215/92/8
f 222/92/50 223/92/50 219/93/50
f 223/92/46 224/94/46 220/95/46
f 224/94/2 225/94/2 221/96/2
f 218/97/4 219/93/4 220/95/4
f 225/94/8 224/94/8 223/92/8
f 218/97/50 222/92/50 219/93/50
f 219/93/46 223/92/46 220/95/46
f 220/95/2 224/94/2 221/96/2
f 221/96/51 218/97/51 220/95/51
f 222/92/8 225/94/8 223/92/8
f 230/92/2 231/92/2 227/93/2
f 231/92/9 232/94/9 228/95/9
f 232/94/14 233/94/14 229/96/14
f 226/97/4 227/93/4 228/95/4
f 233/94/8 232/94/8 231/92/8
f 226/97/2 230/92/2 227/93/2
f 227/93/9 231/92/9 228/95/9
f 228/95/14 232/94/14 229/96/14
f 229/96/52 226/97/52 228/95/52
f 230/92/8 233/94/8 231/92/8
f 238/92/2 239/92/2 235/93/2
f 239/92/10 240/94/10 236/95/10
f 240/94/14 241/94/14 237/96/14
f 234/97/4 235/93/4 236/95/4
f 241/94/8 240/94/8 239/92/8
f 234/97/2 238/92/2 235/93/2
f 235/93/10 239/92/10 236/95/10
f 236/95/14 240/94/14 237/96/14
f 237/96/52 234/97/52 236/95/52
f 238/92/8 241/94/8 239/92/8
f 246/92/53 247/92/53 243/93/53
f 247/92/10 248/94/10 244/95/10
f 248/94/54 249/94/54 245/96/54
f 242/97/4 243/93/4 244/95/4
f 249/94/8 248/94/8 247/92/8
f 242/97/53 246/92/53 243/93/53
f 243/93/10 247/92/10 244/95/10
f 244/95/54 248/94/54 245/96/54
f 245/96/55 242/97/55 244/95/55
f 246/92/8 249/94/8 247/92/8
f 254/92/2 255/92/2 251/93/2
f 255/92/9 256/94/9 252/95/9
f 256/94/14 257/94/14 253/96/14
f 250/97/4 251/93/4 252/95/4
f 257/94/8 256/94/8 255/92/8
f 250/97/2 254/92/2 251/93/2
f 251/93/9 255/92/9 252/95/9
f 252/95/14 256/94/14 253/96/14
f 253/96/52 250/97/52 252/95/52
f 254/92/8 257/94/8 255/92/8
f 262/92/2 263/92/2 259/93/2
f 263/92/10 264/94/10 260/95/10
f 264/94/14 265/94/14 261/96/14
f 258/97/4 259/93/4 260/95/4
f 265/94/8 264/94/8 263/92/8
f 258/97/2 262/92/2 259/93/2
f 259/93/10 263/92/10 260/95/10
f 260/95/14 264/94/14 261/96/14
f 261/96/52 258/97/52 260/95/52
f 262/92/8 265/94/8 263/92/8
f 270/92/53 271/92/53 267/93/53
f 271/92/10 272/94/10 268/95/10
f 272/94/54 273/94/54 269/96/54
f 266/97/4 267/93/4 268/95/4
f 273/94/8 272/94/8 271/92/8
f 266/97/53 270/92/53 267/93/53
f 267/93/10 271/92/10 268/95/10
f 268/95/54 272/94/54 269/96/54
f 269/96/55 266/97/55 268/95/55
f 270/92/8 273/94/8 271/92/8
f 56/67/14 57/68/14 53/65/14
f 55/65/10 60/64/10 56/67/10
f 54/67/2 59/63/2 55/65/2
f 278/98/56 279/98/56 275/99/56
f 279/98/2 280/100/2 276/101/2
f 280/100/10 281/100/10 277/101/10
f 274/99/4 275/99/4 276/101/4
f 274/99/56 278/98/56 275/99/56
f 275/99/2 279/98/2 276/101/2
f 276/101/10 280/100/10 277/101/10
f 277/101/4 274/99/4 276/101/4
f 286/98/57 287/98/57 283/99/57
f 287/98/7 288/100/7 284/101/7
f 288/100/2 289/100/2 285/101/2
f 282/99/4 283/99/4 284/101/4
f 282/99/57 286/98/57 283/99/57
f 283/99/7 287/98/7 284/101/7
f 284/101/2 288/100/2 285/101/2
f 285/101/4 282/99/4 284/101/4
f 294/98/58 295/98/58 291/99/58
f 295/98/14 296/100/14 292/101/14
f 296/100/7 297/100/7 293/101/7
f 290/99/4 291/99/4 292/101/4
f 290/99/58 294/98/58 291/99/58
f 291/99/14 295/98/14 292/101/14
f 292/101/7 296/100/7 293/101/7
f 293/101/4 290/99/4 292/101/4
f 302/98/59 303/98/59 299/99/59
f 303/98/10 304/100/10 300/101/10
f 304/100/14 305/100/14 301/101/14
f 298/99/4 299/99/4 300/101/4
f 298/99/59 302/98/59 299/99/59
f 299/99/10 303/98/10 300/101/10
f 300/101/14 304/100/14 301/101/14
f 301/101/4 298/99/4 300/101/4
f 13/17/60 21/29/60 16/18/60
f 25/16/10 19/36/10 22/22/10
