# Blender v2.66 (sub 1) OBJ File: 'casa2.blend'
# www.blender.org
o Cube.004_Cube.030
v 2.371584 0.527383 1.944688
v 2.368799 0.530168 1.992725
v 1.948183 0.530168 1.992725
v 1.945399 0.527383 1.944688
v 2.371584 0.953568 1.944688
v 2.368799 0.950783 1.992725
v 1.948183 0.950783 1.992725
v 1.945399 0.953568 1.944688
v 1.636264 0.702825 1.952797
v 1.545112 0.702825 2.035567
v 0.938482 0.702825 2.035567
v 0.847329 0.702825 1.952797
v 1.636264 0.830549 1.952797
v 1.545112 0.747189 2.035567
v 0.938482 0.747189 2.035567
v 0.847329 0.830549 1.952797
v 1.514215 -0.019656 2.129762
v 1.001461 -0.019656 2.129762
v 1.514215 0.030462 2.129762
v 1.001461 0.030462 2.129762
v 1.514215 0.125064 2.039036
v 1.514215 0.030462 2.084399
v 1.514215 -0.019656 2.084399
v 1.514215 -0.019656 2.039036
v 1.001461 0.030462 2.084399
v 1.001461 0.125064 2.039036
v 1.001461 -0.019656 2.039036
v 1.001461 -0.019656 2.084399
v 1.514215 0.066953 2.039036
v 1.001461 0.066953 2.039036
v 1.514215 0.125064 1.994015
v 1.514215 -0.019656 1.993672
v 1.001461 0.125064 1.994015
v 1.001461 -0.019656 1.993672
v 1.001461 0.066953 2.085073
v 1.514215 0.066953 2.085073
v 1.464904 0.123897 1.952963
v 1.464904 0.123897 1.983603
v 1.035513 0.123897 1.983602
v 1.035513 0.123897 1.952963
v 1.464904 0.708299 1.952963
v 1.464904 0.708299 1.983603
v 1.035513 0.708299 1.983602
v 1.035513 0.708299 1.952963
v 1.431384 0.153141 1.983603
v 1.069033 0.153141 1.983602
v 1.431384 0.679056 1.983603
v 1.069033 0.679056 1.983602
v 1.431384 0.153141 1.972303
v 1.069033 0.153141 1.972303
v 1.431384 0.679056 1.972303
v 1.069033 0.679056 1.972303
v 6.000000 0.170902 0.000001
v 6.000000 0.170902 2.000001
v -0.000000 0.170902 2.000000
v -0.000000 0.170902 0.000000
v 6.000000 0.000000 0.000001
v 6.000000 0.000000 2.000001
v -0.000000 0.000000 2.000000
v -0.000000 0.000000 0.000000
v 5.873232 0.170902 0.042257
v 5.873231 0.170902 1.957745
v 0.126768 0.170902 1.957744
v 0.126768 0.170902 0.042256
v 0.131191 1.242410 0.040159
v 0.131191 1.242410 1.955647
v 5.877655 1.242410 1.955647
v 5.877655 1.242410 0.040160
v 5.873232 1.163565 0.042257
v 0.126768 1.163565 0.042256
v 5.873231 1.163565 1.957745
v 0.126768 1.163565 1.957744
v 0.106444 1.182974 0.035481
v 0.090532 1.216112 0.030178
v 0.106444 1.182974 1.964519
v 0.090532 1.216112 1.969823
v 5.893556 1.182974 1.964520
v 5.909467 1.216112 1.969823
v 5.893556 1.182974 0.035482
v 5.909468 1.216112 0.030178
v 5.877655 2.308884 0.040160
v 5.877655 2.308884 1.955647
v 0.131191 2.308884 1.955647
v 0.131191 2.308884 0.040159
v 5.996945 2.308884 0.000396
v 5.996945 2.308884 1.995411
v 0.011900 2.308884 1.995410
v 0.011900 2.308884 0.000395
v 5.996945 2.397340 0.000396
v 5.996945 2.397340 1.995411
v 0.011900 2.397340 1.995410
v 0.011900 2.397340 0.000395
v 4.561807 2.974588 0.478775
v 4.561807 2.974588 1.517031
v 1.447038 2.974588 1.517031
v 1.447038 2.974588 0.478775
v 5.320685 0.702825 1.952797
v 5.229533 0.702825 2.035567
v 4.622902 0.702825 2.035567
v 4.531750 0.702825 1.952797
v 5.320685 0.830549 1.952797
v 5.229533 0.747189 2.035567
v 4.622902 0.747189 2.035567
v 4.531750 0.830549 1.952797
v 5.198637 -0.019656 2.129762
v 4.685882 -0.019656 2.129762
v 5.198637 0.030462 2.129762
v 4.685882 0.030462 2.129762
v 5.198636 0.125064 2.039036
v 5.198637 0.030462 2.084399
v 5.198637 -0.019656 2.084399
v 5.198636 -0.019656 2.039036
v 4.685882 0.030462 2.084399
v 4.685882 0.125064 2.039036
v 4.685882 -0.019656 2.039036
v 4.685882 -0.019656 2.084399
v 5.198636 0.066953 2.039036
v 4.685882 0.066953 2.039036
v 5.198637 0.125064 1.994015
v 5.198637 -0.019656 1.993672
v 4.685882 0.125064 1.994015
v 4.685882 -0.019656 1.993672
v 4.685882 0.066953 2.085073
v 5.198637 0.066953 2.085073
v 5.149325 0.123897 1.952963
v 5.149325 0.123897 1.983603
v 4.719934 0.123897 1.983602
v 4.719934 0.123897 1.952963
v 5.149325 0.708299 1.952963
v 5.149325 0.708299 1.983603
v 4.719934 0.708299 1.983602
v 4.719934 0.708299 1.952963
v 5.115805 0.153141 1.983602
v 4.753454 0.153141 1.983602
v 5.115805 0.679056 1.983602
v 4.753454 0.679056 1.983602
v 5.115805 0.153141 1.972303
v 4.753454 0.153141 1.972303
v 5.115805 0.679056 1.972303
v 4.753454 0.679056 1.972303
v 3.319379 0.527383 1.944688
v 3.316595 0.530168 1.992725
v 2.895979 0.530168 1.992725
v 2.893195 0.527383 1.944688
v 3.319379 0.953568 1.944688
v 3.316595 0.950783 1.992725
v 2.895979 0.950783 1.992725
v 2.893195 0.953568 1.944688
v 4.240351 0.527383 1.944688
v 4.237566 0.530168 1.992725
v 3.816951 0.530168 1.992725
v 3.814166 0.527383 1.944688
v 4.240351 0.953568 1.944688
v 4.237566 0.950783 1.992725
v 3.816951 0.950783 1.992725
v 3.814166 0.953568 1.944688
v 2.371584 1.531645 1.944688
v 2.368799 1.534429 1.992725
v 1.948183 1.534429 1.992725
v 1.945399 1.531645 1.944688
v 2.371584 1.957830 1.944688
v 2.368799 1.955045 1.992725
v 1.948183 1.955045 1.992725
v 1.945399 1.957830 1.944688
v 3.319379 1.531645 1.944688
v 3.316595 1.534429 1.992725
v 2.895979 1.534429 1.992725
v 2.893195 1.531645 1.944688
v 3.319379 1.957830 1.944688
v 3.316595 1.955045 1.992725
v 2.895979 1.955045 1.992725
v 2.893195 1.957830 1.944688
v 4.240351 1.531645 1.944688
v 4.237566 1.534429 1.992725
v 3.816951 1.534429 1.992725
v 3.814166 1.531645 1.944688
v 4.240351 1.957830 1.944688
v 4.237566 1.955045 1.992725
v 3.816951 1.955045 1.992725
v 3.814166 1.957830 1.944688
v 1.481095 1.532385 1.944688
v 1.478310 1.535169 1.992725
v 1.057694 1.535169 1.992725
v 1.054910 1.532385 1.944688
v 1.481095 1.958570 1.944688
v 1.478310 1.955785 1.992725
v 1.057694 1.955785 1.992725
v 1.054910 1.958570 1.944688
v 5.866541 1.532385 0.768913
v 5.914578 1.535169 0.771697
v 5.914578 1.535169 1.192313
v 5.866541 1.532385 1.195098
v 5.866541 1.958570 0.768913
v 5.914578 1.955785 0.771697
v 5.914578 1.955785 1.192313
v 5.866541 1.958570 1.195098
v 4.713425 1.958570 1.944688
v 4.716209 1.955785 1.992725
v 5.136825 1.955785 1.992725
v 5.139610 1.958570 1.944688
v 4.713425 1.532385 1.944688
v 4.716209 1.535169 1.992725
v 5.136825 1.535169 1.992725
v 5.139610 1.532385 1.944688
v 0.143056 1.532385 1.195098
v 0.095019 1.535169 1.192313
v 0.095019 1.535169 0.771697
v 0.143056 1.532385 0.768913
v 0.143056 1.958570 1.195098
v 0.095019 1.955785 1.192313
v 0.095019 1.955785 0.771697
v 0.143056 1.958570 0.768913
v 3.823064 0.527383 0.057458
v 3.825849 0.530168 0.009421
v 4.246465 0.530168 0.009421
v 4.249249 0.527383 0.057458
v 3.823064 0.953568 0.057458
v 3.825849 0.950783 0.009421
v 4.246465 0.950783 0.009421
v 4.249249 0.953568 0.057458
v 2.875268 0.527383 0.057458
v 2.878053 0.530168 0.009421
v 3.298669 0.530168 0.009421
v 3.301453 0.527383 0.057458
v 2.875268 0.953568 0.057458
v 2.878053 0.950783 0.009421
v 3.298669 0.950783 0.009421
v 3.301453 0.953568 0.057458
v 1.954296 0.527383 0.057458
v 1.957081 0.530168 0.009421
v 2.377697 0.530168 0.009421
v 2.380481 0.527383 0.057458
v 1.954296 0.953568 0.057458
v 1.957081 0.950783 0.009421
v 2.377697 0.950783 0.009421
v 2.380481 0.953568 0.057458
v 3.823064 1.531645 0.057458
v 3.825849 1.534429 0.009421
v 4.246465 1.534429 0.009421
v 4.249249 1.531645 0.057458
v 3.823064 1.957830 0.057458
v 3.825849 1.955045 0.009421
v 4.246465 1.955045 0.009421
v 4.249249 1.957830 0.057458
v 2.875268 1.531645 0.057458
v 2.878053 1.534429 0.009421
v 3.298669 1.534429 0.009421
v 3.301453 1.531645 0.057458
v 2.875268 1.957830 0.057458
v 2.878053 1.955045 0.009421
v 3.298669 1.955045 0.009421
v 3.301453 1.957830 0.057458
v 1.954296 1.531645 0.057458
v 1.957081 1.534429 0.009421
v 2.377697 1.534429 0.009421
v 2.380481 1.531645 0.057458
v 1.954296 1.957830 0.057458
v 1.957081 1.955045 0.009421
v 2.377697 1.955045 0.009421
v 2.380481 1.957830 0.057458
v 4.713553 1.532385 0.057458
v 4.716337 1.535169 0.009421
v 5.136954 1.535169 0.009421
v 5.139738 1.532385 0.057458
v 4.713553 1.958570 0.057458
v 4.716337 1.955785 0.009421
v 5.136954 1.955785 0.009421
v 5.139738 1.958570 0.057458
v 1.481223 1.958570 0.057458
v 1.478439 1.955785 0.009421
v 1.057822 1.955785 0.009421
v 1.055038 1.958570 0.057458
v 1.481223 1.532385 0.057458
v 1.478439 1.535169 0.009421
v 1.057822 1.535169 0.009421
v 1.055038 1.532385 0.057458
vt 0.288559 0.939694
vt 0.273602 0.924737
vt 0.273602 0.749154
vt 0.098019 0.924737
vt 0.098019 0.749154
vt 0.083062 0.939694
vt 0.083062 0.734197
vt 0.288559 0.734197
vt 0.641530 0.348192
vt 0.640541 0.330561
vt 0.658826 0.280270
vt 0.632656 0.335460
vt 0.629231 0.326805
vt 0.617886 0.346345
vt 0.615164 0.280270
vt 0.634095 0.323962
vt 0.376769 0.289432
vt 0.342983 0.289281
vt 0.342822 0.325079
vt 0.470182 0.300614
vt 0.570209 0.300614
vt 0.570209 0.321810
vt 0.570209 0.280609
vt 0.444392 0.222162
vt 0.410860 0.222011
vt 0.410395 0.325383
vt 0.376770 0.289433
vt 0.376609 0.325231
vt 0.376385 0.263365
vt 0.410674 0.263519
vt 0.570209 0.200439
vt 0.570209 0.220293
vt 0.470182 0.220293
vt 0.470182 0.244870
vt 0.570209 0.244870
vt 0.570209 0.265172
vt 0.410673 0.263519
vt 0.470182 0.265172
vt 0.470182 0.280609
vt 0.376608 0.325231
vt 0.470182 0.321810
vt 0.444182 0.325535
vt 0.470182 0.200439
vt 0.410396 0.325383
vt 0.444183 0.325535
vt 0.584592 0.977511
vt 0.580564 0.971226
vt 0.580564 0.681769
vt 0.395021 0.681769
vt 0.409506 0.696254
vt 0.395021 0.971226
vt 0.390993 0.977511
vt 0.390993 0.675485
vt 0.584592 0.675485
vt 0.566080 0.696254
vt 0.566080 0.956742
vt 0.409506 0.956742
vt 0.939261 0.850242
vt 0.705493 0.914499
vt 0.633160 0.847788
vt 0.872566 0.922115
vt 0.709715 0.918382
vt 0.868525 0.926513
vt 0.710120 0.919378
vt 0.744977 0.010284
vt 0.004984 0.162663
vt 0.004977 0.010283
vt 0.744984 0.010281
vt 0.993638 0.162664
vt 0.993639 0.010281
vt 0.004981 0.010282
vt 0.993640 0.162664
vt 0.701606 0.783922
vt 0.887252 0.781997
vt 0.693894 0.775808
vt 0.895059 0.774555
vt 0.988352 0.685120
vt 0.643462 0.721861
vt 0.602641 0.679687
vt 0.947563 0.724803
vt 0.869033 0.925468
vt 0.744985 0.162664
vt 0.744982 0.162664
vt 0.744984 0.162664
vt 0.939652 0.401210
vt 0.045790 0.383032
vt 0.063968 0.401210
vt 0.957830 0.383032
vt 0.030759 0.368001
vt 1.103273 0.368001
vt 0.191281 0.648606
vt -0.099654 0.368001
vt 0.972861 0.368001
vt 0.605284 0.198658
vt 0.663727 0.257101
vt 0.605284 0.257101
vt 0.226667 0.368312
vt 0.644162 0.648917
vt 0.777347 0.368312
vt 0.226668 0.368312
vt 0.744980 0.010283
vt 0.812340 0.648606
vt 0.663727 0.198658
vt 0.359852 0.648917
vn 0.998324 -0.000000 0.057873
vn -0.000001 0.000000 1.000000
vn -0.998325 0.000000 0.057856
vn -0.000000 -0.998324 0.057866
vn -0.000000 0.998324 0.057866
vn 0.672244 0.000000 0.740330
vn 0.000000 0.000000 1.000000
vn -0.672244 0.000000 0.740330
vn 0.000000 -1.000000 0.000000
vn 0.000000 0.704590 0.709615
vn -0.000000 0.704589 0.709615
vn 1.000000 -0.000000 0.000000
vn 0.000000 1.000000 0.000000
vn 1.000000 -0.000000 0.000008
vn -1.000000 0.000000 0.000000
vn 1.000000 0.000000 -0.000008
vn -0.000000 -0.018454 0.999830
vn 0.000000 -0.018461 0.999830
vn 1.000000 -0.000000 0.000004
vn -1.000000 0.000000 -0.000004
vn 0.000001 0.000000 -1.000000
vn -1.000000 -0.000000 -0.000011
vn 1.000000 -0.000000 0.000011
vn 0.000000 0.000000 -1.000000
vn 0.000000 0.354844 -0.934925
vn 0.637136 0.770752 0.000000
vn -0.000000 0.474511 0.880250
vn 0.690633 -0.723206 0.000000
vn -0.690633 -0.723205 -0.000000
vn -0.000000 -0.158042 0.987432
vn -0.901467 -0.432847 -0.000000
vn 0.000000 -0.158041 -0.987432
vn -0.000000 -0.329552 0.944137
vn 0.000000 -0.329554 -0.944137
vn 0.901467 -0.432847 0.000000
vn -0.543094 0.839672 -0.000000
vn -0.690634 -0.723205 -0.000000
vn -0.000000 -0.158041 0.987433
vn 0.000000 -0.158041 -0.987433
vn -0.000000 -0.329552 0.944138
vn 0.000000 0.638088 -0.769964
vn 0.373169 0.927763 0.000000
vn -0.000000 0.638088 0.769964
vn -0.373169 0.927763 -0.000000
vn 0.672246 0.000000 0.740328
vn -0.672244 0.000000 0.740329
vn 1.000000 0.000000 -0.000011
vn 1.000000 0.000000 -0.000010
vn -0.000004 0.000000 1.000000
vn -0.000000 0.000004 1.000000
vn 0.000000 -0.000004 1.000000
vn 0.998324 -0.000000 0.057868
vn -0.998325 0.000000 0.057859
vn -0.998324 0.000000 0.057864
vn -0.000000 -0.998324 0.057868
vn -0.000000 0.998324 0.057869
vn -0.000000 -0.998324 0.057869
vn -0.000000 0.998324 0.057868
vn 0.998324 -0.000000 0.057871
vn -0.998325 0.000000 0.057854
vn 0.057868 0.000000 -0.998324
vn 1.000000 -0.000000 0.000001
vn 0.057863 -0.000000 0.998325
vn 0.057865 -0.998324 0.000000
vn 0.057866 0.998324 0.000000
vn 0.057863 0.000000 0.998324
vn 0.057866 -0.998324 0.000000
vn 0.057865 0.998324 0.000000
vn -0.998325 0.000000 0.057864
vn -0.057868 0.000000 0.998324
vn -1.000000 0.000000 -0.000001
vn -0.057864 0.000000 -0.998324
vn -0.057866 -0.998324 -0.000000
vn -0.057866 0.998324 -0.000000
vn -0.998324 0.000000 -0.057868
vn 0.998325 0.000000 -0.057854
vn 0.000000 -0.998324 -0.057865
vn 0.000000 0.998324 -0.057866
vn 0.000000 -0.998325 -0.057865
vn -0.998325 0.000000 -0.057863
vn 0.998325 0.000000 -0.057864
vn 0.998324 0.000000 -0.057864
vn 0.000000 -0.998324 -0.057868
vn 0.000000 0.998324 -0.057869
vn 0.000000 -0.998324 -0.057869
vn 0.000000 0.998324 -0.057868
vn -0.998324 0.000000 -0.057863
vn 0.000000 -0.998324 -0.057866
vn 0.998325 0.000000 -0.057861
vn 0.000000 0.000000 0.000000
s off
f 5/1/1 6/2/1 2/3/1
f 6/2/2 7/4/2 3/5/2
f 7/4/3 8/6/3 4/7/3
f 1/8/4 2/3/4 3/5/4
f 8/6/5 7/4/5 6/2/5
f 1/8/1 5/1/1 2/3/1
f 2/3/2 6/2/2 3/5/2
f 3/5/3 7/4/3 4/7/3
f 4/7/4 1/8/4 3/5/4
f 5/1/5 8/6/5 6/2/5
f 13/9/6 14/10/6 9/11/6
f 14/10/7 15/12/7 11/13/7
f 15/12/8 16/14/8 12/15/8
f 9/11/9 10/16/9 11/13/9
f 16/14/10 15/12/10 14/10/10
f 14/10/6 10/16/6 9/11/6
f 10/16/7 14/10/7 11/13/7
f 11/13/8 15/12/8 12/15/8
f 12/15/9 9/11/9 11/13/9
f 13/9/11 16/14/11 14/10/11
f 22/17/12 19/18/12 17/19/12
f 19/20/7 20/21/7 18/22/7
f 25/23/13 20/21/13 19/20/13
f 31/24/14 21/25/14 24/26/14
f 20/18/15 25/27/15 28/28/15
f 25/27/15 35/29/15 30/30/15
f 33/31/13 26/32/13 21/33/13
f 29/34/13 30/35/13 35/36/13
f 29/37/16 22/17/16 24/26/16
f 22/17/16 29/37/16 36/29/16
f 26/25/15 33/24/15 30/30/15
f 36/38/17 25/23/17 22/39/17
f 26/32/7 29/34/7 21/33/7
f 23/40/12 22/17/12 17/19/12
f 17/41/7 19/20/7 18/22/7
f 22/39/13 25/23/13 19/20/13
f 32/42/14 31/24/14 24/26/14
f 18/19/15 20/18/15 28/28/15
f 36/38/18 35/36/18 25/23/18
f 31/43/13 33/31/13 21/33/13
f 25/27/15 27/44/15 28/28/15
f 27/44/15 25/27/15 30/30/15
f 33/24/15 34/45/15 27/44/15
f 36/38/13 29/34/13 35/36/13
f 24/26/16 22/17/16 23/40/16
f 29/34/7 26/32/7 30/35/7
f 41/46/19 42/47/19 38/48/19
f 39/49/7 38/48/7 46/50/7
f 43/51/20 44/52/20 40/53/20
f 44/52/21 41/46/21 37/54/21
f 37/54/9 38/48/9 39/49/9
f 44/52/13 43/51/13 42/47/13
f 46/50/13 45/55/13 49/55/13
f 43/51/7 39/49/7 46/50/7
f 38/48/7 42/47/7 47/56/7
f 42/47/7 43/51/7 48/57/7
f 51/56/7 52/57/7 50/50/7
f 45/55/22 47/56/22 51/56/22
f 47/56/9 48/57/9 52/57/9
f 48/57/23 46/50/23 50/50/23
f 37/54/19 41/46/19 38/48/19
f 38/48/7 45/55/7 46/50/7
f 39/49/20 43/51/20 40/53/20
f 40/53/21 44/52/21 37/54/21
f 40/53/9 37/54/9 39/49/9
f 41/46/13 44/52/13 42/47/13
f 50/50/13 46/50/13 49/55/13
f 48/57/7 43/51/7 46/50/7
f 45/55/7 38/48/7 47/56/7
f 47/56/7 42/47/7 48/57/7
f 49/55/7 51/56/7 50/50/7
f 49/55/22 45/55/22 51/56/22
f 51/56/9 47/56/9 52/57/9
f 52/57/23 48/57/23 50/50/23
f 57/58/12 54/59/12 58/60/12
f 58/60/7 55/61/7 59/58/7
f 59/58/15 56/62/15 60/60/15
f 60/60/24 53/63/24 57/58/24
f 56/62/13 61/61/13 53/63/13
f 54/59/13 62/64/13 55/61/13
f 53/63/13 62/64/13 54/59/13
f 55/61/13 64/59/13 56/62/13
f 64/65/24 69/66/24 61/67/24
f 61/68/12 71/69/12 62/70/12
f 62/68/7 72/66/7 63/71/7
f 63/68/15 70/72/15 64/70/15
f 65/73/25 68/74/25 74/75/25
f 68/74/26 67/73/26 80/76/26
f 67/73/27 66/74/27 78/75/27
f 69/77/28 77/78/28 71/79/28
f 72/77/29 73/78/29 70/79/29
f 77/78/30 76/76/30 75/80/30
f 75/80/31 74/75/31 73/78/31
f 73/78/32 80/76/32 79/80/32
f 71/79/33 75/80/33 72/77/33
f 70/79/34 79/80/34 69/77/34
f 79/80/35 78/75/35 77/78/35
f 53/63/12 54/59/12 57/58/12
f 54/59/7 55/61/7 58/60/7
f 55/61/15 56/62/15 59/58/15
f 56/62/24 53/63/24 60/60/24
f 64/59/13 61/61/13 56/62/13
f 61/61/13 62/64/13 53/63/13
f 63/81/13 64/59/13 55/61/13
f 70/82/24 69/66/24 64/65/24
f 69/83/12 71/69/12 61/68/12
f 71/83/7 72/66/7 62/68/7
f 72/84/15 70/72/15 63/68/15
f 66/74/36 65/73/36 76/76/36
f 76/76/36 65/73/36 74/75/36
f 80/76/26 67/73/26 78/75/26
f 79/80/28 77/78/28 69/77/28
f 75/80/37 73/78/37 72/77/37
f 78/75/38 76/76/38 77/78/38
f 76/76/31 74/75/31 75/80/31
f 74/75/39 80/76/39 73/78/39
f 77/78/40 75/80/40 71/79/40
f 73/78/34 79/80/34 70/79/34
f 80/76/35 78/75/35 79/80/35
f 55/61/13 62/64/13 63/81/13
f 65/66/24 81/65/24 68/82/24
f 84/85/9 85/86/9 81/87/9
f 84/67/24 81/65/24 65/66/24
f 68/72/12 82/65/12 67/82/12
f 83/70/15 84/65/15 66/69/15
f 88/88/24 89/89/24 85/86/24
f 81/87/9 86/88/9 82/85/9
f 82/85/9 87/86/9 83/87/9
f 83/87/9 88/88/9 84/85/9
f 92/90/41 93/91/41 89/92/41
f 87/86/15 92/93/15 88/88/15
f 85/86/12 90/93/12 86/88/12
f 86/88/7 91/89/7 87/86/7
f 93/94/13 95/95/13 94/96/13
f 89/97/42 94/98/42 90/99/42
f 90/90/43 95/91/43 91/92/43
f 91/100/44 96/98/44 92/99/44
f 66/69/15 84/65/15 65/82/15
f 88/88/9 85/86/9 84/85/9
f 67/66/7 83/101/7 66/82/7
f 82/71/7 83/101/7 67/66/7
f 92/93/24 89/89/24 88/88/24
f 85/86/9 86/88/9 81/87/9
f 86/88/9 87/86/9 82/85/9
f 87/86/9 88/88/9 83/87/9
f 96/102/41 93/91/41 92/90/41
f 91/89/15 92/93/15 87/86/15
f 89/89/12 90/93/12 85/86/12
f 90/93/7 91/89/7 86/88/7
f 96/103/13 95/95/13 93/94/13
f 93/104/42 94/98/42 89/97/42
f 94/102/43 95/91/43 90/90/43
f 95/104/44 96/98/44 91/100/44
f 81/70/12 82/65/12 68/72/12
f 74/75/25 68/74/25 80/76/25
f 78/75/27 66/74/27 76/76/27
f 101/9/45 102/10/45 97/11/45
f 102/10/7 103/12/7 99/13/7
f 103/12/46 104/14/46 100/15/46
f 97/11/9 98/16/9 99/13/9
f 104/14/10 103/12/10 102/10/10
f 102/10/45 98/16/45 97/11/45
f 98/16/7 102/10/7 99/13/7
f 99/13/46 103/12/46 100/15/46
f 100/15/9 97/11/9 99/13/9
f 101/9/11 104/14/11 102/10/11
f 110/17/12 107/18/12 105/19/12
f 107/20/7 108/21/7 106/22/7
f 113/23/13 108/21/13 107/20/13
f 119/24/23 109/25/23 112/26/23
f 108/18/15 113/27/15 116/28/15
f 113/27/15 123/29/15 118/30/15
f 121/31/13 114/32/13 109/33/13
f 117/34/13 118/35/13 123/36/13
f 117/37/47 110/17/47 112/26/47
f 110/17/48 117/37/48 124/29/48
f 114/25/15 121/24/15 118/30/15
f 124/38/17 113/23/17 110/39/17
f 114/32/7 117/34/7 109/33/7
f 111/40/12 110/17/12 105/19/12
f 105/41/7 107/20/7 106/22/7
f 110/39/13 113/23/13 107/20/13
f 120/42/23 119/24/23 112/26/23
f 106/19/15 108/18/15 116/28/15
f 124/38/18 123/36/18 113/23/18
f 119/43/13 121/31/13 109/33/13
f 113/27/15 115/44/15 116/28/15
f 115/44/15 113/27/15 118/30/15
f 121/24/15 122/45/15 115/44/15
f 124/38/13 117/34/13 123/36/13
f 112/26/47 110/17/47 111/40/47
f 117/34/7 114/32/7 118/35/7
f 129/46/12 130/47/12 126/48/12
f 127/49/7 126/48/7 134/50/7
f 131/51/15 132/52/15 128/53/15
f 132/52/21 129/46/21 125/54/21
f 125/54/9 126/48/9 127/49/9
f 132/52/13 131/51/13 130/47/13
f 134/50/13 133/55/13 137/55/13
f 131/51/7 127/49/7 134/50/7
f 126/48/49 130/47/49 135/56/49
f 130/47/7 131/51/7 136/57/7
f 139/56/7 140/57/7 138/50/7
f 133/55/15 135/56/15 139/56/15
f 135/56/9 136/57/9 140/57/9
f 136/57/12 134/50/12 138/50/12
f 125/54/12 129/46/12 126/48/12
f 126/48/50 133/55/50 134/50/50
f 127/49/15 131/51/15 128/53/15
f 128/53/21 132/52/21 125/54/21
f 128/53/9 125/54/9 127/49/9
f 129/46/13 132/52/13 130/47/13
f 138/50/13 134/50/13 137/55/13
f 136/57/7 131/51/7 134/50/7
f 133/55/49 126/48/49 135/56/49
f 135/56/51 130/47/51 136/57/51
f 137/55/7 139/56/7 138/50/7
f 137/55/15 133/55/15 139/56/15
f 139/56/9 135/56/9 140/57/9
f 140/57/12 136/57/12 138/50/12
f 145/1/52 146/2/52 142/3/52
f 146/2/2 147/4/2 143/5/2
f 147/4/53 148/6/53 144/7/53
f 141/8/4 142/3/4 143/5/4
f 148/6/5 147/4/5 146/2/5
f 141/8/52 145/1/52 142/3/52
f 142/3/2 146/2/2 143/5/2
f 143/5/53 147/4/53 144/7/53
f 144/7/4 141/8/4 143/5/4
f 145/1/5 148/6/5 146/2/5
f 153/1/1 154/2/1 150/3/1
f 154/2/2 155/4/2 151/5/2
f 155/4/54 156/6/54 152/7/54
f 149/8/4 150/3/4 151/5/4
f 156/6/5 155/4/5 154/2/5
f 149/8/1 153/1/1 150/3/1
f 150/3/2 154/2/2 151/5/2
f 151/5/54 155/4/54 152/7/54
f 152/7/4 149/8/4 151/5/4
f 153/1/5 156/6/5 154/2/5
f 161/1/1 162/2/1 158/3/1
f 162/2/2 163/4/2 159/5/2
f 163/4/3 164/6/3 160/7/3
f 157/8/55 158/3/55 159/5/55
f 164/6/56 163/4/56 162/2/56
f 157/8/1 161/1/1 158/3/1
f 158/3/2 162/2/2 159/5/2
f 159/5/3 163/4/3 160/7/3
f 160/7/57 157/8/57 159/5/57
f 161/1/58 164/6/58 162/2/58
f 169/1/52 170/2/52 166/3/52
f 170/2/2 171/4/2 167/5/2
f 171/4/53 172/6/53 168/7/53
f 165/8/55 166/3/55 167/5/55
f 172/6/56 171/4/56 170/2/56
f 165/8/52 169/1/52 166/3/52
f 166/3/2 170/2/2 167/5/2
f 167/5/53 171/4/53 168/7/53
f 168/7/57 165/8/57 167/5/57
f 169/1/58 172/6/58 170/2/58
f 177/1/1 178/2/1 174/3/1
f 178/2/2 179/4/2 175/5/2
f 179/4/54 180/6/54 176/7/54
f 173/8/55 174/3/55 175/5/55
f 180/6/56 179/4/56 178/2/56
f 173/8/1 177/1/1 174/3/1
f 174/3/2 178/2/2 175/5/2
f 175/5/54 179/4/54 176/7/54
f 176/7/57 173/8/57 175/5/57
f 177/1/58 180/6/58 178/2/58
f 185/1/59 186/2/59 182/3/59
f 186/2/2 187/4/2 183/5/2
f 187/4/60 188/6/60 184/7/60
f 181/8/4 182/3/4 183/5/4
f 188/6/5 187/4/5 186/2/5
f 181/8/59 185/1/59 182/3/59
f 182/3/2 186/2/2 183/5/2
f 183/5/60 187/4/60 184/7/60
f 184/7/4 181/8/4 183/5/4
f 185/1/5 188/6/5 186/2/5
f 193/1/61 194/2/61 190/3/61
f 194/2/62 195/4/62 191/5/62
f 195/4/63 196/6/63 192/7/63
f 189/8/64 190/3/64 191/5/64
f 196/6/65 195/4/65 194/2/65
f 189/8/61 193/1/61 190/3/61
f 190/3/62 194/2/62 191/5/62
f 191/5/66 195/4/66 192/7/66
f 192/7/67 189/8/67 191/5/67
f 193/1/68 196/6/68 194/2/68
f 200/1/5 197/6/5 199/2/5
f 201/7/4 204/8/4 202/5/4
f 202/5/54 198/4/54 201/7/54
f 203/3/2 199/2/2 202/5/2
f 204/8/1 200/1/1 203/3/1
f 197/6/5 198/4/5 199/2/5
f 204/8/4 203/3/4 202/5/4
f 198/4/69 197/6/69 201/7/69
f 199/2/2 198/4/2 202/5/2
f 200/1/1 199/2/1 203/3/1
f 209/1/70 210/2/70 206/3/70
f 210/2/71 211/4/71 207/5/71
f 211/4/72 212/6/72 208/7/72
f 205/8/73 206/3/73 207/5/73
f 212/6/74 211/4/74 210/2/74
f 205/8/70 209/1/70 206/3/70
f 206/3/71 210/2/71 207/5/71
f 207/5/72 211/4/72 208/7/72
f 208/7/73 205/8/73 207/5/73
f 209/1/74 212/6/74 210/2/74
f 217/1/75 218/2/75 214/3/75
f 218/2/21 219/4/21 215/5/21
f 219/4/76 220/6/76 216/7/76
f 213/8/77 214/3/77 215/5/77
f 220/6/78 219/4/78 218/2/78
f 213/8/75 217/1/75 214/3/75
f 214/3/21 218/2/21 215/5/21
f 215/5/76 219/4/76 216/7/76
f 216/7/79 213/8/79 215/5/79
f 217/1/78 220/6/78 218/2/78
f 225/1/80 226/2/80 222/3/80
f 226/2/21 227/4/21 223/5/21
f 227/4/76 228/6/76 224/7/76
f 221/8/79 222/3/79 223/5/79
f 228/6/78 227/4/78 226/2/78
f 221/8/80 225/1/80 222/3/80
f 222/3/21 226/2/21 223/5/21
f 223/5/76 227/4/76 224/7/76
f 224/7/77 221/8/77 223/5/77
f 225/1/78 228/6/78 226/2/78
f 233/1/75 234/2/75 230/3/75
f 234/2/21 235/4/21 231/5/21
f 235/4/81 236/6/81 232/7/81
f 229/8/77 230/3/77 231/5/77
f 236/6/78 235/4/78 234/2/78
f 229/8/75 233/1/75 230/3/75
f 230/3/21 234/2/21 231/5/21
f 231/5/82 235/4/82 232/7/82
f 232/7/77 229/8/77 231/5/77
f 233/1/78 236/6/78 234/2/78
f 241/1/75 242/2/75 238/3/75
f 242/2/21 243/4/21 239/5/21
f 243/4/76 244/6/76 240/7/76
f 237/8/83 238/3/83 239/5/83
f 244/6/84 243/4/84 242/2/84
f 237/8/75 241/1/75 238/3/75
f 238/3/21 242/2/21 239/5/21
f 239/5/76 243/4/76 240/7/76
f 240/7/85 237/8/85 239/5/85
f 241/1/86 244/6/86 242/2/86
f 249/1/87 250/2/87 246/3/87
f 250/2/21 251/4/21 247/5/21
f 251/4/76 252/6/76 248/7/76
f 245/8/83 246/3/83 247/5/83
f 252/6/84 251/4/84 250/2/84
f 245/8/80 249/1/80 246/3/80
f 246/3/21 250/2/21 247/5/21
f 247/5/76 251/4/76 248/7/76
f 248/7/85 245/8/85 247/5/85
f 249/1/86 252/6/86 250/2/86
f 257/1/75 258/2/75 254/3/75
f 258/2/21 259/4/21 255/5/21
f 259/4/82 260/6/82 256/7/82
f 253/8/83 254/3/83 255/5/83
f 260/6/84 259/4/84 258/2/84
f 253/8/75 257/1/75 254/3/75
f 254/3/21 258/2/21 255/5/21
f 255/5/82 259/4/82 256/7/82
f 256/7/85 253/8/85 255/5/85
f 257/1/86 260/6/86 258/2/86
f 265/1/87 266/2/87 262/3/87
f 266/2/21 267/4/21 263/5/21
f 267/4/81 268/6/81 264/7/81
f 261/8/88 262/3/88 263/5/88
f 268/6/78 267/4/78 266/2/78
f 261/8/80 265/1/80 262/3/80
f 262/3/21 266/2/21 263/5/21
f 263/5/82 267/4/82 264/7/82
f 264/7/88 261/8/88 263/5/88
f 265/1/78 268/6/78 266/2/78
f 272/1/78 269/6/78 271/2/78
f 273/7/88 276/8/88 274/5/88
f 274/5/89 270/4/89 273/7/89
f 275/3/21 271/2/21 274/5/21
f 276/8/75 272/1/75 275/3/75
f 269/6/78 270/4/78 271/2/78
f 276/8/88 275/3/88 274/5/88
f 270/4/89 269/6/89 273/7/89
f 271/2/21 270/4/21 274/5/21
f 272/1/75 271/2/75 275/3/75
f 21/25/90 29/37/90 24/26/90
f 33/24/15 27/44/15 30/30/15
f 109/25/90 117/37/90 112/26/90
f 121/24/15 115/44/15 118/30/15
